<svg width="103" height="21" viewBox="0 0 103 21" fill="none" xmlns="http://www.w3.org/2000/svg">
<path d="M4.67257 9.53157C5.16332 9.4706 5.51312 9.39108 5.72456 9.29566C6.10306 9.13398 6.29362 8.87952 6.29362 8.53494C6.29362 8.11614 6.14744 7.82723 5.85769 7.66819C5.56793 7.50916 5.13983 7.42964 4.5786 7.42964C3.94689 7.42964 3.50051 7.58602 3.23948 7.8988C3.05153 8.1294 2.92623 8.44217 2.86358 8.83711H0.323687C0.378505 7.94121 0.62649 7.20699 1.06503 6.63181C1.76461 5.7306 2.96539 5.28 4.66474 5.28C5.77154 5.28 6.75565 5.50265 7.61447 5.9453C8.47328 6.3906 8.90399 7.22819 8.90399 8.46072V13.1523C8.90399 13.4783 8.90921 13.8706 8.92227 14.3345C8.94054 14.6843 8.99275 14.9229 9.07889 15.0475C9.16503 15.172 9.29555 15.2754 9.46784 15.3576V15.7525H6.60686C6.52594 15.5458 6.47112 15.3523 6.4398 15.172C6.40847 14.9892 6.38498 14.7851 6.36671 14.5545C6.00126 14.9547 5.58098 15.2966 5.10329 15.5776C4.53422 15.9089 3.88946 16.0759 3.169 16.0759C2.25275 16.0759 1.49314 15.8108 0.897969 15.2834C0.300193 14.7559 0 14.0058 0 13.0357C0 11.7793 0.480309 10.8675 1.44354 10.3055C1.97083 9.99807 2.74612 9.78072 3.76938 9.64819L4.67257 9.53157ZM6.28318 10.78C6.1135 10.886 5.94383 10.9735 5.77154 11.0371C5.59926 11.1034 5.36432 11.1643 5.06413 11.22L4.46374 11.3313C3.90251 11.432 3.4979 11.554 3.25253 11.6971C2.83748 11.941 2.63126 12.32 2.63126 12.8316C2.63126 13.2875 2.75656 13.6188 3.01237 13.8202C3.26558 14.0243 3.57361 14.1251 3.93645 14.1251C4.51073 14.1251 5.04064 13.9554 5.52617 13.6188C6.0117 13.2822 6.26229 12.6646 6.28057 11.7713L6.28318 10.78ZM23.8092 5.56361C24.24 5.73855 24.6315 6.04602 24.9839 6.48337C25.2658 6.84121 25.459 7.27855 25.5556 7.79807C25.6156 8.14265 25.6469 8.64627 25.6469 9.30892L25.6287 15.7552H22.9322V9.24265C22.9322 8.85566 22.8695 8.53494 22.7468 8.28578C22.5119 7.81133 22.0812 7.57277 21.4521 7.57277C20.7238 7.57277 20.2226 7.88024 19.9459 8.49253C19.8049 8.81855 19.7344 9.20819 19.7344 9.66675V15.7552H17.0823V9.6641C17.0823 9.05711 17.0223 8.61711 16.897 8.34145C16.6751 7.84578 16.2418 7.60193 15.5944 7.60193C14.8426 7.60193 14.3362 7.84843 14.0778 8.34145C13.9368 8.62241 13.8663 9.0412 13.8663 9.59783V15.7525H11.1959V5.54506H13.7541V7.03735C14.0804 6.50723 14.3884 6.12819 14.6781 5.90289C15.1898 5.50265 15.8528 5.3012 16.6646 5.3012C17.4347 5.3012 18.056 5.47349 18.5311 5.81807C18.9122 6.13615 19.2019 6.54699 19.4003 7.04795C19.7449 6.44892 20.173 6.00627 20.6846 5.7253C21.2276 5.44434 21.8306 5.30386 22.4962 5.30386C22.9426 5.30121 23.3785 5.38867 23.8092 5.56361ZM34.6684 5.73325C35.3706 6.05398 35.9501 6.55759 36.4095 7.24675C36.822 7.85373 37.0882 8.55879 37.2109 9.36193C37.2814 9.83108 37.3101 10.5096 37.2971 11.3923H29.9619C30.0037 12.4181 30.3535 13.139 31.0165 13.5499C31.4185 13.807 31.9014 13.9342 32.4679 13.9342C33.0682 13.9342 33.5564 13.7778 33.9297 13.4651C34.1333 13.2954 34.316 13.0622 34.4726 12.76H37.1613C37.0908 13.367 36.7645 13.9819 36.185 14.6075C35.2818 15.6014 34.0184 16.0998 32.3948 16.0998C31.0556 16.0998 29.8705 15.681 28.8473 14.8407C27.824 14.0031 27.3098 12.6381 27.3098 10.7455C27.3098 8.97494 27.7718 7.61518 28.6985 6.66892C29.6226 5.72265 30.8233 5.25084 32.3008 5.25084C33.1753 5.25349 33.9662 5.41518 34.6684 5.73325ZM30.7294 8.04193C30.3561 8.43157 30.1237 8.95904 30.0272 9.62434H34.564C34.517 8.91398 34.2821 8.3759 33.8618 8.00747C33.4415 7.63904 32.9221 7.45614 32.3008 7.45614C31.6247 7.4588 31.1 7.65229 30.7294 8.04193ZM44.2589 5.28795C44.2929 5.2906 44.3686 5.2959 44.486 5.3012V8.04193C44.319 8.02337 44.1728 8.01012 44.0423 8.00482C43.9118 7.99952 43.8073 7.99422 43.729 7.99422C42.6692 7.99422 41.9592 8.3441 41.5937 9.04651C41.3901 9.44145 41.2883 10.0484 41.2883 10.8648V15.7525H38.6362V5.52651H41.15V7.31036C41.5572 6.62916 41.9122 6.16265 42.2124 5.91349C42.7058 5.4947 43.3453 5.2853 44.1336 5.2853C44.1832 5.28265 44.225 5.28265 44.2589 5.28795ZM46.2794 5.33036H48.9498V15.7525H46.2794V5.33036ZM57.1646 9.19494C57.115 8.81325 56.9897 8.46868 56.7835 8.16386C56.4885 7.75036 56.0265 7.54627 55.4026 7.54627C54.5125 7.54627 53.9043 7.99422 53.578 8.88747C53.4057 9.36193 53.3195 9.99277 53.3195 10.7773C53.3195 11.5248 53.4057 12.1265 53.578 12.5824C53.8938 13.4333 54.4864 13.8573 55.3556 13.8573C55.9743 13.8573 56.4102 13.6904 56.6713 13.3511C56.9297 13.0145 57.0889 12.5771 57.1438 12.0364H59.8324C59.7698 12.8501 59.48 13.6188 58.9632 14.3451C58.1357 15.514 56.914 16.0998 55.2904 16.0998C53.6693 16.0998 52.4764 15.612 51.7116 14.6366C50.9467 13.6612 50.5656 12.3942 50.5656 10.841C50.5656 9.08626 50.9885 7.72121 51.8316 6.74578C52.6748 5.77036 53.8416 5.28265 55.3269 5.28265C56.5904 5.28265 57.6241 5.56892 58.4307 6.14675C59.2347 6.72193 59.7124 7.73976 59.8585 9.19494H57.1646ZM65.6901 9.53157C66.1809 9.4706 66.5307 9.39108 66.7421 9.29566C67.1206 9.13398 67.3112 8.87952 67.3112 8.53494C67.3112 8.11614 67.165 7.82723 66.8752 7.66819C66.5855 7.50916 66.1574 7.42964 65.5961 7.42964C64.9644 7.42964 64.5181 7.58602 64.257 7.8988C64.0691 8.1294 63.9438 8.44217 63.8811 8.83711H61.3412C61.3961 7.94121 61.644 7.20699 62.0852 6.63181C62.7848 5.7306 63.9855 5.28 65.6849 5.28C66.7917 5.28 67.7758 5.50265 68.6346 5.9453C69.496 6.3906 69.9268 7.22819 69.9268 8.46072V13.1523C69.9268 13.4783 69.932 13.8706 69.945 14.3345C69.9633 14.6843 70.0155 14.9229 70.1017 15.0475C70.1878 15.172 70.3183 15.2754 70.4906 15.3576V15.7525H67.6244C67.5435 15.5458 67.4887 15.3523 67.4573 15.172C67.426 14.9892 67.4025 14.7851 67.3843 14.5545C67.0188 14.9547 66.5985 15.2966 66.1208 15.5776C65.5518 15.9089 64.907 16.0759 64.1865 16.0759C63.2703 16.0759 62.5133 15.8108 61.9155 15.2834C61.3177 14.7559 61.0176 14.0058 61.0176 13.0357C61.0176 11.7793 61.4979 10.8675 62.4611 10.3055C62.9884 9.99807 63.7637 9.78072 64.7895 9.64819L65.6901 9.53157ZM67.2981 10.78C67.1311 10.886 66.9588 10.9735 66.7865 11.0371C66.6142 11.1034 66.3793 11.1643 66.0791 11.22L65.4787 11.3313C64.9174 11.432 64.5128 11.554 64.2675 11.6971C63.8524 11.941 63.6462 12.32 63.6462 12.8316C63.6462 13.2875 63.7715 13.6188 64.0273 13.8202C64.2805 14.0243 64.5885 14.1251 64.9514 14.1251C65.5283 14.1251 66.0556 13.9554 66.5411 13.6188C67.0266 13.2822 67.2772 12.6646 67.2955 11.7713L67.2981 10.78ZM80.3813 6.11229C81.0417 6.66627 81.3707 7.58337 81.3707 8.86626V15.7525H78.6715V9.53157C78.6715 8.99349 78.6011 8.58 78.4601 8.29373C78.2043 7.76892 77.7135 7.50651 76.993 7.50651C76.1055 7.50651 75.4973 7.89084 75.1684 8.65952C74.9961 9.06771 74.91 9.58458 74.91 10.2181V15.7552H72.2761V5.54506H74.8264V7.03735C75.1632 6.51253 75.4843 6.13349 75.7845 5.90289C76.3248 5.4894 77.0087 5.28265 77.8362 5.28265C78.8751 5.28265 79.7235 5.55831 80.3813 6.11229ZM87.646 9.53157C88.1368 9.4706 88.4865 9.39108 88.698 9.29566C89.0765 9.13398 89.2644 8.87952 89.2644 8.53494C89.2644 8.11614 89.1183 7.82723 88.8285 7.66819C88.5387 7.50916 88.1106 7.42964 87.5494 7.42964C86.9177 7.42964 86.4713 7.58602 86.2103 7.8988C86.0223 8.1294 85.897 8.44217 85.837 8.83711H83.2971C83.3519 7.94121 83.5999 7.20699 84.0385 6.63181C84.738 5.7306 85.9388 5.28 87.6382 5.28C88.745 5.28 89.7291 5.50265 90.5905 5.9453C91.4493 6.3906 91.88 7.22819 91.88 8.46072V13.1523C91.88 13.4783 91.8852 13.8706 91.8983 14.3345C91.9166 14.6843 91.9688 14.9229 92.0549 15.0475C92.1411 15.172 92.2716 15.2754 92.4439 15.3576V15.7525H89.5803C89.4994 15.5458 89.4445 15.3523 89.4132 15.172C89.3819 14.9892 89.3584 14.7851 89.3401 14.5545C88.9747 14.9547 88.5544 15.2966 88.0767 15.5776C87.5077 15.9089 86.8629 16.0759 86.1424 16.0759C85.2262 16.0759 84.4692 15.8108 83.8714 15.2834C83.2736 14.7559 82.9734 14.0058 82.9734 13.0357C82.9734 11.7793 83.4537 10.8675 84.417 10.3055C84.9443 9.99807 85.7195 9.78072 86.7454 9.64819L87.646 9.53157ZM89.2566 10.78C89.0869 10.886 88.9173 10.9735 88.7476 11.0371C88.5753 11.1034 88.3404 11.1643 88.0402 11.22L87.4398 11.3313C86.8785 11.432 86.4739 11.554 86.2286 11.6971C85.8135 11.941 85.6073 12.32 85.6073 12.8316C85.6073 13.2875 85.7352 13.6188 85.9884 13.8202C86.2416 14.0243 86.5496 14.1251 86.9125 14.1251C87.4868 14.1251 88.0193 13.9554 88.5022 13.6188C88.9877 13.2822 89.2383 12.6646 89.2566 11.7713V10.78ZM96.2394 12.487C96.2942 12.9614 96.4169 13.3007 96.6022 13.4995C96.9311 13.8547 97.5367 14.0349 98.4216 14.0349C98.9411 14.0349 99.3535 13.9581 99.6616 13.8017C99.967 13.6453 100.121 13.412 100.121 13.0966C100.121 12.7971 99.9983 12.5692 99.7503 12.4128C99.5049 12.2564 98.5861 11.9887 96.9964 11.607C95.8504 11.3181 95.0464 10.9602 94.5765 10.5282C94.1093 10.1014 93.8744 9.48916 93.8744 8.68867C93.8744 7.74506 94.2398 6.93398 94.9707 6.25277C95.7016 5.57422 96.7327 5.23494 98.0588 5.23494C99.317 5.23494 100.345 5.4894 101.136 5.99831C101.93 6.50723 102.384 7.38988 102.502 8.63831H99.8678C99.8312 8.29374 99.7347 8.02337 99.5806 7.82193C99.2909 7.4588 98.7949 7.2759 98.0979 7.2759C97.5237 7.2759 97.1138 7.36602 96.8711 7.54892C96.6283 7.72916 96.5056 7.94386 96.5056 8.18771C96.5056 8.49518 96.6361 8.71783 96.8946 8.85301C97.153 8.99614 98.0692 9.24265 99.6433 9.59518C100.693 9.84434 101.478 10.2234 102.003 10.7296C102.52 11.2412 102.778 11.8827 102.778 12.654C102.778 13.6665 102.405 14.4935 101.664 15.1349C100.92 15.7764 99.7712 16.0971 98.2154 16.0971C96.6283 16.0971 95.4589 15.7578 94.7019 15.0793C93.9448 14.4007 93.5689 13.5366 93.5689 12.4843H96.2394V12.487ZM0.0182726 0H102.606V2.6294H0.0182726V0ZM0.0182726 17.9605H102.606V20.5899H0.0182726V17.9605Z" fill="white"/>
</svg>
