<svg width="353" height="243" viewBox="0 0 353 243" fill="none" xmlns="http://www.w3.org/2000/svg">
<path d="M176.934 51.8941H160.54V75.8908H176.934V51.8941Z" fill="#774E55"/>
<path opacity="0.2" d="M176.934 51.8941H160.54V75.8908H176.934V51.8941Z" fill="black"/>
<path d="M220.053 65.7906L210.788 66.5038L212.214 30.392L215.301 28.4922L219.577 29.2055L220.053 65.7906Z" fill="#DE1616"/>
<path d="M215.301 28.4922L200.572 25.6393L196.296 62.941L210.788 66.5038L215.301 28.4922Z" fill="#D50812"/>
<path d="M128.585 10.6746H126.445L122.169 47.973L131.671 47.4997L128.585 10.6746Z" fill="#DE1616"/>
<path d="M127.872 10.198L125.259 47.7363L148.066 50.1127L150.679 13.5242L127.872 10.198Z" fill="#D50812"/>
<path d="M155.432 205.015C155.432 205.015 152.582 204.779 152.106 213.094C152.106 213.094 152.582 217.607 151.392 219.747C150.203 221.886 150.916 228.062 154.482 228.775C156.764 229.196 159.103 229.196 161.384 228.775C161.384 228.775 163.047 228.775 161.861 222.836L159.484 205.492L155.432 205.015Z" fill="#5C3D53"/>
<path opacity="0.05" d="M155.432 205.015C155.432 205.015 152.582 204.779 152.106 213.094C152.106 213.094 152.582 217.607 151.392 219.747C150.203 221.886 150.916 228.062 154.482 228.775C156.764 229.196 159.103 229.196 161.384 228.775C161.384 228.775 163.047 228.775 161.861 222.836L159.484 205.492L155.432 205.015Z" fill="black"/>
<path d="M170.37 67.8218C170.166 71.3584 170.873 73.4093 170.873 73.4093L164.697 75.0724C164.697 75.0724 154.482 76.4989 158.521 72.443C159.918 71.0461 160.605 68.6501 160.904 66.1192C161.091 64.3906 161.149 62.6503 161.078 60.913C161.023 59.2853 160.883 57.6615 160.658 56.0486C160.658 56.0486 175.626 50.8226 172.299 59.3748C171.693 60.9217 171.215 62.5156 170.87 64.1406C170.612 65.3537 170.445 66.5841 170.37 67.8218Z" fill="#F8BDC5"/>
<path opacity="0.1" d="M172.299 59.3781C171.694 60.925 171.215 62.5189 170.87 64.1439C169.098 64.5204 167.258 64.42 165.538 63.853C163.818 63.2859 162.279 62.2726 161.078 60.9163C161.024 59.2886 160.883 57.6649 160.658 56.0519C160.658 56.0519 175.626 50.8259 172.299 59.3781Z" fill="black"/>
<path d="M168.737 63.8909C174.378 63.8909 178.952 59.3173 178.952 53.6755C178.952 48.0338 174.378 43.4602 168.737 43.4602C163.095 43.4602 158.521 48.0338 158.521 53.6755C158.521 59.3173 163.095 63.8909 168.737 63.8909Z" fill="#F8BDC5"/>
<path d="M150.679 58.6649V61.7544L145.453 75.296L144.026 73.8695C143.948 73.785 143.875 73.6949 143.81 73.6C140.358 68.6961 137.847 36.0946 137.847 36.0946L134.524 8.52835C134.524 8.52835 130.962 -0.0172781 138.797 0.449444C146.633 0.916167 140.46 8.28841 140.46 8.28841C140.46 8.28841 145.686 34.4216 144.973 35.3715C144.26 36.3213 144.973 39.1743 144.973 39.1743C144.973 39.1743 147.113 44.6402 146.873 48.6763C146.633 52.7125 150.679 58.6649 150.679 58.6649Z" fill="#F8BDC5"/>
<path d="M209.598 22.553L197.243 48.6862L195.343 52.2425C195.343 52.2425 189.427 73.1201 182.594 78.1193C182.201 78.4126 181.775 78.6586 181.325 78.8523L179.899 67.4472L181.213 64.1341L181.312 63.881C182.836 62.3942 184.048 60.6173 184.875 58.655C186.301 55.3288 190.341 48.6764 190.341 48.6764C190.341 48.6764 191.054 46.7766 191.054 45.3501C191.054 43.9237 204.595 20.4035 204.595 20.4035C204.595 20.4035 205.782 9.7116 211.498 14.9376C217.213 20.1636 209.598 22.553 209.598 22.553Z" fill="#F8BDC5"/>
<path d="M161.845 212.141C161.845 212.141 153.766 215.467 154.716 212.378C155.294 210.504 155.08 206.964 154.824 204.489C154.66 202.876 154.476 201.699 154.476 201.699L161.378 202.412C161.137 203.014 161.002 203.654 160.98 204.302C160.753 207.454 161.845 212.141 161.845 212.141Z" fill="#F8BDC5"/>
<path d="M174.406 202.899C173.161 207.224 173.486 214.757 173.486 214.757C173.486 214.757 166.12 215.707 166.834 213.807C167.33 212.493 168.056 205.978 168.451 202.149C168.625 200.476 168.733 199.316 168.733 199.316L175.386 200.742C174.933 201.397 174.601 202.127 174.406 202.899V202.899Z" fill="#F8BDC5"/>
<path opacity="0.1" d="M154.479 201.689L161.381 202.402C161.14 203.004 161.005 203.644 160.983 204.292C160.04 204.786 158.996 205.06 157.932 205.092C156.867 205.124 155.809 204.915 154.837 204.479C154.663 202.862 154.479 201.689 154.479 201.689Z" fill="black"/>
<path opacity="0.1" d="M175.389 200.739C174.933 201.394 174.599 202.125 174.403 202.899C172.158 203.26 169.802 202.626 168.451 202.149C168.625 200.476 168.733 199.316 168.733 199.316L175.389 200.739Z" fill="black"/>
<path d="M182.992 145.38L181.592 155.194C181.023 158.92 180.16 162.594 179.008 166.182C178.002 169.419 178.716 173.413 178.716 173.413C178.716 173.413 179.665 188.618 178.002 192.42C176.339 196.223 176.576 201.686 176.576 201.686C172.773 203.825 167.31 201.209 167.31 201.209L166.834 176.026C166.834 176.026 165.647 169.373 166.121 163.207C166.594 157.041 165.407 144.44 165.407 144.44C162.778 145.153 163.031 179.839 163.031 179.839V202.409C157.329 207.398 152.339 202.409 152.339 202.409C150.439 196.706 151.153 179.362 151.153 179.362L150.439 169.147C150.439 169.147 147.81 156.555 146.167 138.974C145.658 134.034 145.59 129.06 145.963 124.108C146.009 123.569 146.059 123.051 146.114 122.553C146.342 120.305 146.753 118.079 147.343 115.898C147.532 115.178 147.773 114.474 148.066 113.791L173.595 114.977L175.1 115.046L178.716 115.214C179.11 115.809 179.481 116.414 179.827 117.018C180.326 117.896 180.776 118.78 181.177 119.648C181.407 120.154 181.624 120.663 181.835 121.17C186.689 133.426 182.992 145.38 182.992 145.38Z" fill="#2F2E41"/>
<path opacity="0.1" d="M154.955 116.16C154.955 116.16 153.838 127.336 145.959 124.101C146.005 123.562 146.056 123.044 146.11 122.547C147.964 123.05 153.095 123.743 153.289 116.157L154.955 116.16Z" fill="black"/>
<path opacity="0.1" d="M181.821 121.173C176.365 123.122 174.307 117.932 173.604 114.971L175.109 115.04C175.928 119.697 179.195 119.97 181.183 119.641C181.407 120.16 181.621 120.67 181.821 121.173Z" fill="black"/>
<path d="M157.548 210.879C156.335 210.688 154.482 210.021 155.063 207.691C155.063 207.691 152.818 206.915 153.055 216.18C153.055 216.18 152.818 220.693 152.342 221.646C151.865 222.599 152.342 228.299 157.331 227.822C157.331 227.822 160.894 229.009 161.844 227.109C161.844 227.109 161.131 216.18 162.321 214.291C163.51 212.401 161.844 210.488 161.844 210.488C161.844 210.488 160.161 211.421 158.952 211.145C158.491 211.017 158.018 210.954 157.548 210.879Z" fill="#5C3D53"/>
<path d="M163.507 226.396C163.507 226.396 161.131 230.435 166.597 230.908C172.063 231.382 174.436 228.532 174.436 228.532C174.436 228.532 175.149 227.346 174.436 225.206C173.723 223.066 174.673 219.267 174.673 219.267C174.673 219.267 175.386 214.754 173.723 215.704C172.06 216.654 163.507 226.396 163.507 226.396Z" fill="#5C3D53"/>
<path opacity="0.05" d="M163.507 226.396C163.507 226.396 161.131 230.435 166.597 230.908C172.063 231.382 174.436 228.532 174.436 228.532C174.436 228.532 175.149 227.346 174.436 225.206C173.723 223.066 174.673 219.267 174.673 219.267C174.673 219.267 175.386 214.754 173.723 215.704C172.06 216.654 163.507 226.396 163.507 226.396Z" fill="black"/>
<path d="M169.686 211.904C169.686 211.904 166.837 210.718 166.124 213.091C165.41 215.464 165.887 221.406 164.46 223.069C163.034 224.733 161.134 229.245 166.837 229.009C172.539 228.772 173.739 226.869 173.739 226.869C173.739 226.869 173.502 220.93 174.216 219.267C174.929 217.604 174.216 214.994 174.216 214.994C174.216 214.994 174.436 211.651 169.686 211.904Z" fill="#5C3D53"/>
<path opacity="0.2" d="M134.048 14.0008C134.311 14.0008 134.525 13.7875 134.525 13.5243C134.525 13.261 134.311 13.0477 134.048 13.0477C133.785 13.0477 133.572 13.261 133.572 13.5243C133.572 13.7875 133.785 14.0008 134.048 14.0008Z" fill="black"/>
<path opacity="0.2" d="M144.027 15.1874C144.29 15.1874 144.504 14.974 144.504 14.7108C144.504 14.4476 144.29 14.2342 144.027 14.2342C143.764 14.2342 143.55 14.4476 143.55 14.7108C143.55 14.974 143.764 15.1874 144.027 15.1874Z" fill="black"/>
<path d="M144.145 14.714H143.908C143.908 14.6121 144.076 4.59076 138.321 3.66718C137.187 3.4864 136.26 3.74277 135.567 4.42971C133.19 6.78633 134.173 13.4421 134.183 13.5078L133.95 13.5439C133.907 13.2646 132.941 6.70087 135.402 4.26208C136.152 3.51598 137.151 3.23661 138.36 3.43053C144.316 4.38369 144.148 14.6121 144.145 14.714Z" fill="#535461"/>
<path d="M211.369 28.0682L211.156 27.9663C211.192 27.8874 214.853 19.9564 210.015 17.1923L210.133 16.9852C215.159 19.8578 211.409 27.986 211.369 28.0682Z" fill="#535461"/>
<path opacity="0.1" d="M170.873 73.3962L164.697 75.0593C164.697 75.0593 154.482 76.4858 158.521 72.4299C159.918 71.033 160.605 68.6369 160.904 66.1061C162.518 68.6369 164.46 67.9171 164.46 67.9171L170.35 67.8021H170.373C170.166 71.3584 170.873 73.3962 170.873 73.3962Z" fill="black"/>
<path opacity="0.1" d="M182.597 78.1259C182.205 78.4191 181.779 78.6651 181.329 78.8588L179.902 67.4537L181.217 64.1406L181.545 63.8875C184.513 64.7322 182.982 75.6575 182.597 78.1259Z" fill="black"/>
<path opacity="0.1" d="M150.679 58.6649V61.7545L145.453 75.296L144.026 73.8695C143.948 73.785 143.875 73.695 143.81 73.6C144.427 66.54 150.679 58.6649 150.679 58.6649Z" fill="black"/>
<path opacity="0.1" d="M179.823 117.012C176.5 117.843 159.153 121.919 154.006 118.06C151.974 116.538 149.582 115.98 147.343 115.891C147.532 115.172 147.773 114.467 148.066 113.784L173.595 114.971L175.1 115.04L178.716 115.207C179.11 115.806 179.478 116.407 179.823 117.012Z" fill="black"/>
<path d="M135.119 2.47736C135.119 2.47736 138.682 8.41656 141.059 2.47736Z" fill="#F8BDC5"/>
<path d="M208.411 14.7108C208.411 14.7108 206.985 21.8398 212.684 18.5136Z" fill="#F8BDC5"/>
<g opacity="0.1">
<path opacity="0.1" d="M164.303 146.783C164.188 145.337 164.102 144.433 164.102 144.433C161.473 145.147 161.726 179.832 161.726 179.832V202.402C160.056 203.862 158.439 204.466 157.009 204.595C158.725 204.746 160.769 204.266 162.926 202.402V179.832C162.926 179.832 162.742 154.698 164.303 146.783Z" fill="black"/>
<path opacity="0.1" d="M181.703 121.173C181.502 120.667 181.289 120.157 181.046 119.651C180.645 118.77 180.194 117.886 179.695 117.022C179.366 116.417 178.978 115.815 178.584 115.217L174.968 115.05L173.463 114.981L147.935 113.794L147.911 113.847L172.276 114.981L173.782 115.05L177.397 115.217C177.792 115.812 178.163 116.417 178.508 117.022C179.008 117.899 179.458 118.783 179.859 119.651C180.089 120.157 180.306 120.667 180.516 121.173C185.374 133.433 181.686 145.38 181.686 145.38L180.286 155.194C179.718 158.92 178.854 162.594 177.703 166.182C176.697 169.419 177.41 173.413 177.41 173.413C177.41 173.413 178.36 188.618 176.697 192.42C175.034 196.223 175.271 201.686 175.271 201.686C174.353 202.181 173.335 202.462 172.293 202.507C173.731 202.637 175.176 202.352 176.457 201.686C176.457 201.686 176.221 196.22 177.884 192.42C179.547 188.621 178.597 173.413 178.597 173.413C178.597 173.413 177.884 169.416 178.889 166.182C180.041 162.594 180.905 158.92 181.473 155.194L182.873 145.38C182.873 145.38 186.561 133.426 181.703 121.173Z" fill="black"/>
</g>
<path d="M170.35 68.2885C173.637 69.8366 181.328 63.8908 181.328 63.8908C184.654 64.8407 182.278 78.6222 182.278 78.6222L182.15 79.1941C181.427 82.4447 180.99 85.7479 180.585 89.0544C180.28 91.5491 178.002 93.8301 178.002 93.8301C173.962 101.432 180.378 116.4 180.378 116.4C180.378 116.4 159.708 121.866 154.008 117.587C148.309 113.308 139.754 116.637 139.754 116.637C143.793 113.074 144.026 90.9772 144.026 90.9772V73.8859C144.503 66.7569 150.929 58.6813 150.929 58.6813C153.558 66.0469 160.865 66.5334 160.865 66.5334C162.485 69.1628 164.48 68.4233 164.48 68.4233L170.35 68.2885Z" fill="#D50812"/>
<path opacity="0.1" d="M166.078 39.2795C165.262 39.1022 164.418 39.1022 163.603 39.2795C161.019 39.9927 160.208 43.2499 158.213 45.0379C157.496 45.6952 156.612 46.1357 155.961 46.8489C154.804 48.1176 154.571 49.9976 154.817 51.6969C155.064 53.3962 155.721 55.0067 156.132 56.6731C156.538 58.3412 156.692 60.0605 156.589 61.7742C156.598 62.343 156.445 62.9027 156.148 63.388C155.672 64.0453 154.794 64.2524 154.176 64.7783C152.29 66.402 153.848 69.7709 152.464 71.8449C151.869 72.7421 150.755 73.3338 150.528 74.3855C150.367 75.1316 150.709 75.8843 151.044 76.5712C151.925 78.379 152.839 80.236 154.331 81.5836C155.823 82.9311 157.667 83.6082 159.501 84.2952C160.056 84.5022 160.753 84.683 161.177 84.2722C161.7 83.7594 161.305 82.8917 160.944 82.2574C160.372 81.2713 159.925 80.0815 160.26 78.9706C160.595 77.8597 161.67 77.1234 162.393 76.1965C164.257 73.7972 163.646 70.3527 162.722 67.4603C162.331 66.2409 161.89 64.9426 162.222 63.7035C162.364 63.171 162.643 62.6879 162.821 62.1653C163.609 59.8383 162.285 57.2844 162.673 54.8588C162.874 53.9116 163.206 52.9968 163.659 52.1406L165.746 47.6542C165.956 47.1142 166.27 46.6207 166.669 46.2014C167.318 45.6799 168.14 45.4238 168.97 45.4849C169.816 45.5038 170.65 45.6945 171.42 46.0454C172.19 46.3962 172.881 46.9 173.45 47.526C175.685 50.0108 175.544 53.7709 175.274 57.0839L175.08 59.4767C174.939 61.199 174.752 63.0363 173.667 64.3773C172.822 65.4159 171.458 66.1226 171.11 67.4176C170.807 68.5318 171.376 69.7413 171.077 70.8555C170.63 72.5219 168.572 73.1234 167.485 74.471C167.027 75.0567 166.756 75.7666 166.708 76.5083C166.66 77.25 166.837 77.9889 167.215 78.6288C167.629 79.2861 168.29 79.9435 168.201 80.7159C168.125 81.3371 167.567 81.8399 167.57 82.4644C167.597 82.7439 167.707 83.0086 167.888 83.2239C168.068 83.4392 168.309 83.595 168.579 83.6707C169.123 83.8116 169.69 83.8384 170.245 83.7496L176.139 83.2171C176.508 83.2157 176.87 83.1158 177.187 82.9279C177.598 82.6321 177.733 82.0864 177.789 81.5836C178.025 79.4866 177.46 77.1957 178.508 75.3617C178.837 74.7734 179.32 74.2836 179.685 73.7183C181.697 70.563 179.669 66.2836 180.763 62.7043C181.282 61.0051 182.492 59.5457 182.814 57.8004C183.241 55.4734 182.029 53.199 181.559 50.8982C181.075 48.5219 181.335 45.9056 180.066 43.8382C179.097 42.2606 177.361 41.2778 175.567 40.8275C173.923 40.4134 172.28 40.5613 170.637 40.3838C169.065 40.203 167.606 39.526 166.078 39.2795Z" fill="black"/>
<path d="M166.078 38.8029C165.262 38.6257 164.418 38.6257 163.603 38.8029C161.019 39.5161 160.208 42.7733 158.213 44.5613C157.496 45.2187 156.612 45.6591 155.961 46.3723C154.804 47.641 154.571 49.5211 154.817 51.2203C155.064 52.9196 155.721 54.5301 156.132 56.1965C156.538 57.8646 156.692 59.584 156.589 61.2976C156.598 61.8664 156.445 62.4261 156.148 62.9114C155.672 63.5688 154.794 63.7758 154.176 64.3017C152.29 65.9254 153.848 69.2943 152.464 71.3683C151.869 72.2656 150.755 72.8572 150.528 73.909C150.367 74.6551 150.709 75.4077 151.044 76.0947C151.925 77.9024 152.839 79.7594 154.331 81.107C155.823 82.4546 157.667 83.1317 159.501 83.8186C160.056 84.0257 160.753 84.2064 161.177 83.7956C161.7 83.2829 161.305 82.4151 160.944 81.7808C160.372 80.7948 159.925 79.605 160.26 78.494C160.595 77.3831 161.67 76.6469 162.393 75.72C164.257 73.3206 163.646 69.8761 162.722 66.9837C162.331 65.7643 161.89 64.4661 162.222 63.2269C162.364 62.6945 162.643 62.2113 162.821 61.6887C163.609 59.3617 162.285 56.8079 162.673 54.3822C162.874 53.435 163.206 52.5203 163.659 51.6641L165.746 47.1776C165.956 46.6377 166.27 46.1441 166.669 45.7248C167.318 45.2033 168.14 44.9473 168.97 45.0083C169.816 45.0272 170.65 45.2179 171.42 45.5688C172.19 45.9197 172.881 46.4234 173.45 47.0494C175.685 49.5342 175.544 53.2943 175.274 56.6074L175.08 59.0001C174.939 60.7224 174.752 62.5597 173.667 63.9007C172.822 64.9394 171.458 65.646 171.11 66.941C170.807 68.0552 171.376 69.2647 171.077 70.379C170.63 72.0454 168.572 72.6468 167.485 73.9944C167.027 74.5801 166.756 75.2901 166.708 76.0317C166.66 76.7734 166.837 77.5124 167.215 78.1522C167.629 78.8096 168.29 79.4669 168.201 80.2393C168.125 80.8605 167.567 81.3634 167.57 81.9879C167.597 82.2673 167.707 82.5321 167.888 82.7474C168.068 82.9627 168.309 83.1184 168.579 83.1941C169.123 83.335 169.69 83.3619 170.245 83.273L176.139 82.7405C176.508 82.7391 176.87 82.6393 177.187 82.4513C177.598 82.1555 177.733 81.6099 177.789 81.107C178.025 79.01 177.46 76.7192 178.508 74.8851C178.837 74.2968 179.32 73.8071 179.685 73.2418C181.697 70.0864 179.669 65.8071 180.763 62.2278C181.282 60.5285 182.492 59.0692 182.814 57.3239C183.241 54.9968 182.029 52.7224 181.559 50.4217C181.075 48.0453 181.335 45.429 180.066 43.3616C179.097 41.784 177.361 40.8013 175.567 40.351C173.923 39.9368 172.28 40.0847 170.637 39.9072C169.065 39.7298 167.606 39.0527 166.078 38.8029Z" fill="#774E55"/>
<path opacity="0.1" d="M153.41 93.2319C153.41 93.2319 158.163 94.6584 165.052 91.5688H168.612C168.612 91.5688 168.848 94.895 178.114 93.4686" fill="black"/>
<path opacity="0.1" d="M176.5 242.054C273.978 242.054 353 234.843 353 225.949C353 217.054 273.978 209.844 176.5 209.844C79.0217 209.844 0 217.054 0 225.949C0 234.843 79.0217 242.054 176.5 242.054Z" fill="#CF1717"/>
</svg>
