<svg width="409" height="280" viewBox="0 0 409 280" fill="none" xmlns="http://www.w3.org/2000/svg">
<path d="M204.533 59.4906H185.581V87.2305H204.533V59.4906Z" fill="#774E55"/>
<path opacity="0.2" d="M204.533 59.4906H185.581V87.2305H204.533V59.4906Z" fill="black"/>
<path d="M254.379 75.5548L243.668 76.3793L245.317 34.6345L248.885 32.4384L253.828 33.2629L254.379 75.5548Z" fill="#DE1616"/>
<path d="M248.884 32.4384L231.859 29.1404L226.916 72.2606L243.668 76.3792L248.884 32.4384Z" fill="#D50812"/>
<path d="M148.643 11.8415H146.169L141.226 54.9579L152.21 54.4107L148.643 11.8415Z" fill="#DE1616"/>
<path d="M147.818 11.2906L144.798 54.6843L171.162 57.4313L174.183 15.1356L147.818 11.2906Z" fill="#D50812"/>
<path d="M179.677 236.496C179.677 236.496 176.383 236.223 175.832 245.835C175.832 245.835 176.383 251.052 175.007 253.526C173.632 255.999 174.457 263.138 178.579 263.963C181.216 264.449 183.92 264.449 186.558 263.963C186.558 263.963 188.48 263.963 187.109 257.097L184.362 237.047L179.677 236.496Z" fill="#5C3D53"/>
<path opacity="0.05" d="M179.677 236.496C179.677 236.496 176.383 236.223 175.832 245.835C175.832 245.835 176.383 251.052 175.007 253.526C173.632 255.999 174.457 263.138 178.579 263.963C181.216 264.449 183.92 264.449 186.558 263.963C186.558 263.963 188.48 263.963 187.109 257.097L184.362 237.047L179.677 236.496Z" fill="black"/>
<path d="M196.945 77.9028C196.71 81.991 197.527 84.3619 197.527 84.3619L190.387 86.2844C190.387 86.2844 178.579 87.9334 183.248 83.2448C184.863 81.6301 185.657 78.8603 186.003 75.9347C186.219 73.9363 186.286 71.9246 186.204 69.9163C186.141 68.0347 185.978 66.1577 185.718 64.2931C185.718 64.2931 203.021 58.2519 199.175 68.1382C198.475 69.9263 197.922 71.7689 197.523 73.6474C197.225 75.0497 197.032 76.472 196.945 77.9028Z" fill="#F8BDC5"/>
<path opacity="0.1" d="M199.176 68.142C198.475 69.9302 197.922 71.7727 197.523 73.6512C195.475 74.0864 193.348 73.9703 191.36 73.3148C189.371 72.6594 187.592 71.4879 186.204 69.9201C186.141 68.0385 185.979 66.1615 185.718 64.2969C185.718 64.2969 203.021 58.2558 199.176 68.142Z" fill="black"/>
<path d="M195.057 73.3587C201.579 73.3587 206.866 68.0717 206.866 61.5499C206.866 55.0281 201.579 49.7412 195.057 49.7412C188.535 49.7412 183.248 55.0281 183.248 61.5499C183.248 68.0717 188.535 73.3587 195.057 73.3587Z" fill="#F8BDC5"/>
<path d="M174.183 67.3175V70.889L168.142 86.5428L166.493 84.8938C166.402 84.7961 166.318 84.692 166.242 84.5823C162.252 78.9135 159.35 41.2265 159.35 41.2265L155.508 9.36041C155.508 9.36041 151.39 -0.518203 160.448 0.0213217C169.506 0.560846 162.37 9.08305 162.37 9.08305C162.37 9.08305 168.411 39.2926 167.587 40.3907C166.762 41.4887 167.587 44.7867 167.587 44.7867C167.587 44.7867 170.06 51.1052 169.783 55.7709C169.506 60.4367 174.183 67.3175 174.183 67.3175Z" fill="#F8BDC5"/>
<path d="M242.292 25.5728L228.01 55.7823L225.814 59.8934C225.814 59.8934 218.975 84.0276 211.076 89.8066C210.622 90.1456 210.129 90.43 209.609 90.6539L207.96 77.4697L209.48 73.6398L209.594 73.3473C211.356 71.6285 212.756 69.5745 213.712 67.3061C215.361 63.4611 220.031 55.7709 220.031 55.7709C220.031 55.7709 220.855 53.5748 220.855 51.9259C220.855 50.2769 236.509 23.0879 236.509 23.0879C236.509 23.0879 237.881 10.7282 244.488 16.7694C251.095 22.8105 242.292 25.5728 242.292 25.5728Z" fill="#F8BDC5"/>
<path d="M187.09 244.734C187.09 244.734 177.751 248.579 178.849 245.007C179.518 242.842 179.271 238.749 178.974 235.888C178.784 234.023 178.572 232.663 178.572 232.663L186.55 233.487C186.272 234.183 186.116 234.923 186.091 235.672C185.829 239.316 187.09 244.734 187.09 244.734Z" fill="#F8BDC5"/>
<path d="M201.611 234.05C200.171 239.05 200.547 247.758 200.547 247.758C200.547 247.758 192.033 248.856 192.857 246.66C193.431 245.14 194.271 237.61 194.726 233.183C194.928 231.249 195.053 229.908 195.053 229.908L202.743 231.557C202.22 232.314 201.836 233.158 201.611 234.05V234.05Z" fill="#F8BDC5"/>
<path opacity="0.1" d="M178.575 232.651L186.554 233.476C186.275 234.172 186.12 234.911 186.094 235.661C185.003 236.231 183.797 236.548 182.567 236.585C181.336 236.623 180.113 236.381 178.989 235.877C178.788 234.008 178.575 232.651 178.575 232.651Z" fill="black"/>
<path opacity="0.1" d="M202.747 231.553C202.221 232.31 201.834 233.156 201.607 234.05C199.012 234.468 196.288 233.734 194.727 233.183C194.928 231.249 195.053 229.908 195.053 229.908L202.747 231.553Z" fill="black"/>
<path d="M211.536 167.559L209.917 178.904C209.261 183.211 208.262 187.458 206.931 191.606C205.768 195.348 206.593 199.965 206.593 199.965C206.593 199.965 207.691 217.541 205.768 221.937C203.846 226.333 204.119 232.648 204.119 232.648C199.723 235.121 193.408 232.097 193.408 232.097L192.858 202.985C192.858 202.985 191.486 195.295 192.033 188.167C192.58 181.039 191.209 166.472 191.209 166.472C188.169 167.297 188.462 207.393 188.462 207.393V233.483C181.87 239.251 176.102 233.483 176.102 233.483C173.906 226.891 174.73 206.842 174.73 206.842L173.906 195.033C173.906 195.033 170.866 180.477 168.966 160.154C168.379 154.444 168.3 148.693 168.731 142.969C168.784 142.346 168.842 141.747 168.906 141.172C169.169 138.573 169.644 135.999 170.327 133.478C170.545 132.646 170.824 131.832 171.163 131.042L200.673 132.414L202.413 132.494L206.593 132.687C207.049 133.375 207.478 134.074 207.877 134.773C208.454 135.788 208.975 136.81 209.438 137.813C209.704 138.398 209.955 138.987 210.198 139.572C215.81 153.74 211.536 167.559 211.536 167.559Z" fill="#2F2E41"/>
<path opacity="0.1" d="M179.126 133.782C179.126 133.782 177.834 146.7 168.727 142.961C168.78 142.338 168.838 141.739 168.901 141.164C171.044 141.745 176.975 142.547 177.2 133.778L179.126 133.782Z" fill="black"/>
<path opacity="0.1" d="M210.183 139.576C203.875 141.829 201.497 135.83 200.684 132.406L202.424 132.486C203.37 137.87 207.147 138.185 209.445 137.805C209.704 138.406 209.951 138.994 210.183 139.576Z" fill="black"/>
<path d="M182.123 243.275C180.721 243.054 178.579 242.283 179.251 239.589C179.251 239.589 176.656 238.693 176.93 249.403C176.93 249.403 176.656 254.62 176.105 255.722C175.554 256.824 176.105 263.412 181.873 262.861C181.873 262.861 185.991 264.233 187.089 262.037C187.089 262.037 186.265 249.403 187.64 247.219C189.016 245.034 187.089 242.823 187.089 242.823C187.089 242.823 185.144 243.902 183.746 243.582C183.214 243.434 182.667 243.362 182.123 243.275Z" fill="#5C3D53"/>
<path d="M189.012 261.212C189.012 261.212 186.265 265.882 192.584 266.429C198.902 266.976 201.645 263.682 201.645 263.682C201.645 263.682 202.47 262.31 201.645 259.837C200.821 257.363 201.919 252.971 201.919 252.971C201.919 252.971 202.744 247.754 200.821 248.852C198.898 249.95 189.012 261.212 189.012 261.212Z" fill="#5C3D53"/>
<path opacity="0.05" d="M189.012 261.212C189.012 261.212 186.265 265.882 192.584 266.429C198.902 266.976 201.645 263.682 201.645 263.682C201.645 263.682 202.47 262.31 201.645 259.837C200.821 257.363 201.919 252.971 201.919 252.971C201.919 252.971 202.744 247.754 200.821 248.852C198.898 249.95 189.012 261.212 189.012 261.212Z" fill="black"/>
<path d="M196.155 244.46C196.155 244.46 192.861 243.088 192.036 245.832C191.212 248.575 191.763 255.444 190.114 257.367C188.465 259.289 186.269 264.506 192.861 264.233C199.453 263.959 200.84 261.759 200.84 261.759C200.84 261.759 200.566 254.893 201.391 252.971C202.215 251.048 201.391 248.032 201.391 248.032C201.391 248.032 201.645 244.168 196.155 244.46Z" fill="#5C3D53"/>
<path opacity="0.2" d="M154.958 15.6865C155.262 15.6865 155.509 15.4399 155.509 15.1356C155.509 14.8313 155.262 14.5847 154.958 14.5847C154.654 14.5847 154.407 14.8313 154.407 15.1356C154.407 15.4399 154.654 15.6865 154.958 15.6865Z" fill="black"/>
<path opacity="0.2" d="M166.493 17.0581C166.797 17.0581 167.044 16.8115 167.044 16.5072C167.044 16.2029 166.797 15.9563 166.493 15.9563C166.189 15.9563 165.942 16.2029 165.942 16.5072C165.942 16.8115 166.189 17.0581 166.493 17.0581Z" fill="black"/>
<path d="M166.63 16.511H166.356C166.356 16.3932 166.55 4.80863 159.897 3.74098C158.586 3.53201 157.515 3.82837 156.713 4.62246C153.966 7.34668 155.102 15.0406 155.113 15.1166L154.844 15.1584C154.794 14.8354 153.677 7.24789 156.523 4.42868C157.389 3.5662 158.544 3.24325 159.943 3.46742C166.827 4.56926 166.633 16.3932 166.63 16.511Z" fill="#535461"/>
<path d="M244.34 31.9482L244.093 31.8304C244.135 31.7393 248.367 22.5711 242.774 19.3758L242.911 19.1364C248.721 22.4571 244.385 31.8532 244.34 31.9482Z" fill="#535461"/>
<path opacity="0.1" d="M197.527 84.3467L190.387 86.2693C190.387 86.2693 178.579 87.9182 183.248 83.2297C184.863 81.6149 185.657 78.8451 186.003 75.9195C187.868 78.8451 190.114 78.013 190.114 78.013L196.922 77.88H196.949C196.71 81.991 197.527 84.3467 197.527 84.3467Z" fill="black"/>
<path opacity="0.1" d="M211.08 89.8142C210.626 90.1532 210.134 90.4375 209.613 90.6614L207.964 77.4773L209.484 73.6474L209.864 73.3549C213.295 74.3313 211.524 86.9608 211.08 89.8142Z" fill="black"/>
<path opacity="0.1" d="M174.183 67.3175V70.889L168.142 86.5428L166.493 84.8939C166.402 84.7962 166.318 84.6921 166.242 84.5823C166.956 76.4211 174.183 67.3175 174.183 67.3175Z" fill="black"/>
<path opacity="0.1" d="M207.873 134.766C204.032 135.727 183.978 140.438 178.028 135.978C175.68 134.219 172.914 133.573 170.327 133.47C170.544 132.639 170.824 131.825 171.163 131.035L200.673 132.406L202.413 132.486L206.593 132.68C207.049 133.371 207.474 134.067 207.873 134.766Z" fill="black"/>
<path d="M156.196 2.36554C156.196 2.36554 160.315 9.23118 163.062 2.36554Z" fill="#F8BDC5"/>
<path d="M240.92 16.5072C240.92 16.5072 239.271 24.7483 245.86 20.9032Z" fill="#F8BDC5"/>
<g opacity="0.1">
<path opacity="0.1" d="M189.932 169.181C189.799 167.509 189.7 166.465 189.7 166.465C186.66 167.289 186.953 207.385 186.953 207.385V233.476C185.023 235.163 183.153 235.862 181.501 236.01C183.484 236.185 185.847 235.63 188.34 233.476V207.385C188.34 207.385 188.127 178.33 189.932 169.181Z" fill="black"/>
<path opacity="0.1" d="M210.046 139.576C209.814 138.991 209.567 138.402 209.286 137.817C208.822 136.798 208.302 135.776 207.724 134.777C207.344 134.078 206.896 133.383 206.44 132.691L202.261 132.497L200.521 132.418L171.01 131.046L170.984 131.107L199.149 132.418L200.889 132.497L205.069 132.691C205.524 133.379 205.954 134.078 206.353 134.777C206.93 135.792 207.451 136.814 207.914 137.817C208.18 138.402 208.431 138.991 208.674 139.576C214.29 153.748 210.027 167.559 210.027 167.559L208.408 178.904C207.752 183.211 206.753 187.458 205.422 191.606C204.259 195.348 205.084 199.965 205.084 199.965C205.084 199.965 206.182 217.541 204.259 221.937C202.337 226.333 202.61 232.648 202.61 232.648C201.549 233.22 200.372 233.545 199.168 233.597C200.83 233.747 202.501 233.417 203.982 232.648C203.982 232.648 203.708 226.329 205.631 221.937C207.553 217.545 206.455 199.965 206.455 199.965C206.455 199.965 205.631 195.344 206.794 191.606C208.125 187.458 209.123 183.211 209.78 178.904L211.398 167.559C211.398 167.559 215.661 153.74 210.046 139.576Z" fill="black"/>
</g>
<path d="M196.922 78.4423C200.722 80.2319 209.613 73.3586 209.613 73.3586C213.458 74.4567 210.711 90.3879 210.711 90.3879L210.563 91.049C209.727 94.8066 209.221 98.6251 208.754 102.447C208.401 105.331 205.768 107.968 205.768 107.968C201.098 116.756 208.515 134.059 208.515 134.059C208.515 134.059 184.62 140.377 178.032 135.431C171.443 130.484 161.553 134.333 161.553 134.333C166.223 130.214 166.493 104.67 166.493 104.67V84.9128C167.043 76.6718 174.471 67.3365 174.471 67.3365C177.511 75.8511 185.957 76.4134 185.957 76.4134C187.83 79.453 190.137 78.5981 190.137 78.5981L196.922 78.4423Z" fill="#D50812"/>
<path opacity="0.1" d="M191.983 44.9082C191.041 44.7034 190.065 44.7034 189.122 44.9082C186.136 45.7327 185.198 49.498 182.891 51.5649C182.063 52.3248 181.041 52.8339 180.289 53.6584C178.951 55.125 178.682 57.2983 178.967 59.2626C179.251 61.227 180.011 63.0887 180.486 65.015C180.955 66.9433 181.133 68.9309 181.014 70.9118C181.025 71.5693 180.848 72.2163 180.505 72.7773C179.954 73.5372 178.94 73.7766 178.226 74.3845C176.045 76.2615 177.846 80.1559 176.246 82.5534C175.558 83.5906 174.27 84.2745 174.008 85.4904C173.822 86.3528 174.217 87.2229 174.605 88.017C175.623 90.1067 176.679 92.2534 178.404 93.8112C180.129 95.369 182.261 96.1517 184.381 96.9458C185.023 97.1851 185.828 97.3941 186.318 96.9192C186.923 96.3264 186.467 95.3234 186.049 94.5901C185.388 93.4502 184.871 92.0748 185.258 90.7906C185.646 89.5064 186.888 88.6553 187.724 87.5839C189.879 84.8103 189.172 80.8284 188.104 77.4849C187.652 76.0753 187.143 74.5745 187.527 73.1421C187.69 72.5266 188.013 71.9681 188.218 71.3639C189.13 68.6739 187.599 65.7217 188.047 62.9177C188.28 61.8228 188.664 60.7653 189.187 59.7756L191.6 54.5893C191.842 53.9651 192.205 53.3946 192.667 52.9099C193.417 52.3071 194.368 52.0111 195.327 52.0816C196.305 52.1035 197.268 52.3239 198.159 52.7295C199.049 53.1351 199.847 53.7175 200.506 54.4411C203.089 57.3135 202.926 61.6601 202.614 65.49L202.39 68.256C202.227 70.2469 202.01 72.3708 200.756 73.921C199.78 75.1216 198.203 75.9385 197.8 77.4355C197.451 78.7235 198.108 80.1217 197.762 81.4097C197.246 83.3361 194.867 84.0314 193.61 85.5892C193.081 86.2662 192.768 87.0869 192.712 87.9443C192.657 88.8016 192.861 89.6558 193.298 90.3955C193.777 91.1554 194.541 91.9153 194.438 92.8081C194.351 93.5262 193.705 94.1076 193.708 94.8295C193.739 95.1525 193.867 95.4585 194.076 95.7074C194.284 95.9563 194.562 96.1364 194.875 96.2239C195.504 96.3867 196.16 96.4178 196.801 96.315L203.614 95.6995C204.04 95.6979 204.459 95.5825 204.826 95.3652C205.301 95.0232 205.456 94.3925 205.521 93.8112C205.795 91.3871 205.141 88.7389 206.353 86.6188C206.733 85.9387 207.292 85.3726 207.713 84.7191C210.039 81.0716 207.694 76.1247 208.959 71.987C209.56 70.0227 210.958 68.3358 211.33 66.3182C211.824 63.6282 210.422 60.999 209.879 58.3394C209.32 55.5924 209.621 52.568 208.154 50.1781C207.033 48.3544 205.027 47.2183 202.953 46.6978C201.053 46.2191 199.153 46.39 197.253 46.1849C195.437 45.9759 193.75 45.1932 191.983 44.9082Z" fill="black"/>
<path d="M191.983 44.3573C191.041 44.1525 190.065 44.1525 189.122 44.3573C186.136 45.1818 185.198 48.9471 182.891 51.014C182.063 51.7739 181.041 52.283 180.289 53.1075C178.951 54.5741 178.682 56.7474 178.967 58.7117C179.251 60.6761 180.011 62.5378 180.486 64.4641C180.955 66.3924 181.133 68.38 181.014 70.3609C181.025 71.0184 180.848 71.6654 180.505 72.2264C179.954 72.9863 178.94 73.2257 178.226 73.8336C176.045 75.7106 177.846 79.605 176.246 82.0025C175.558 83.0397 174.27 83.7236 174.008 84.9395C173.822 85.8019 174.217 86.672 174.605 87.4661C175.623 89.5558 176.679 91.7025 178.404 93.2603C180.129 94.8181 182.261 95.6008 184.381 96.3949C185.023 96.6342 185.828 96.8432 186.318 96.3683C186.923 95.7755 186.467 94.7725 186.049 94.0392C185.388 92.8993 184.871 91.5239 185.258 90.2397C185.646 88.9555 186.888 88.1044 187.724 87.033C189.879 84.2594 189.172 80.2775 188.104 76.934C187.652 75.5244 187.143 74.0236 187.527 72.5912C187.69 71.9757 188.013 71.4171 188.218 70.813C189.13 68.123 187.599 65.1708 188.047 62.3668C188.28 61.2719 188.664 60.2144 189.187 59.2247L191.6 54.0384C191.842 53.4142 192.205 52.8437 192.667 52.359C193.417 51.7562 194.368 51.4602 195.327 51.5307C196.305 51.5526 197.268 51.773 198.159 52.1786C199.049 52.5842 199.847 53.1665 200.506 53.8902C203.089 56.7626 202.926 61.1092 202.614 64.9391L202.39 67.7051C202.227 69.696 202.01 71.8199 200.756 73.3701C199.78 74.5707 198.203 75.3876 197.8 76.8846C197.451 78.1726 198.108 79.5708 197.762 80.8588C197.246 82.7852 194.867 83.4805 193.61 85.0382C193.081 85.7153 192.768 86.536 192.712 87.3933C192.657 88.2507 192.861 89.1049 193.298 89.8446C193.777 90.6045 194.541 91.3644 194.438 92.2572C194.351 92.9753 193.705 93.5566 193.708 94.2785C193.739 94.6016 193.867 94.9076 194.076 95.1565C194.284 95.4054 194.562 95.5855 194.875 95.673C195.504 95.8359 196.16 95.8669 196.801 95.7641L203.614 95.1486C204.04 95.147 204.459 95.0316 204.826 94.8143C205.301 94.4723 205.456 93.8416 205.521 93.2603C205.795 90.8362 205.141 88.188 206.353 86.0679C206.733 85.3878 207.292 84.8217 207.713 84.1682C210.039 80.5207 207.694 75.5738 208.959 71.4362C209.56 69.4718 210.958 67.7849 211.33 65.7673C211.824 63.0773 210.422 60.4481 209.879 57.7885C209.32 55.0414 209.621 52.0171 208.154 49.6272C207.033 47.8035 205.027 46.6674 202.953 46.1469C201.053 45.6682 199.153 45.8391 197.253 45.634C195.437 45.4288 193.75 44.6461 191.983 44.3573Z" fill="#774E55"/>
<path opacity="0.1" d="M177.34 107.277C177.34 107.277 182.834 108.926 190.798 105.354H194.913C194.913 105.354 195.186 109.199 205.897 107.55" fill="black"/>
<path opacity="0.1" d="M204.031 279.313C316.715 279.313 408.063 270.977 408.063 260.695C408.063 250.413 316.715 242.078 204.031 242.078C91.348 242.078 0 250.413 0 260.695C0 270.977 91.348 279.313 204.031 279.313Z" fill="#CF1717"/>
</svg>
