<svg width="349" height="291" viewBox="0 0 349 291" fill="none" xmlns="http://www.w3.org/2000/svg">
<g clip-path="url(#clip0)">
<path d="M143.683 68.4768H142.099V25.1034C142.099 21.8067 141.45 18.5424 140.188 15.4967C138.927 12.451 137.078 9.68363 134.747 7.35256C132.416 5.02149 129.648 3.17239 126.603 1.91083C123.557 0.649271 120.293 -4.08312e-05 116.996 -3.05175e-05H25.1034C21.8068 -4.08312e-05 18.5425 0.649271 15.4968 1.91083C12.4511 3.17239 9.68369 5.0215 7.35262 7.35256C5.02155 9.68363 3.17244 12.451 1.91087 15.4967C0.649309 18.5424 -5.15684e-06 21.8067 0 25.1034V263.053C-3.09409e-06 266.35 0.649314 269.614 1.91088 272.66C3.17245 275.706 5.02156 278.473 7.35263 280.804C9.6837 283.135 12.4511 284.984 15.4968 286.246C18.5425 287.508 21.8068 288.157 25.1034 288.157H116.996C120.293 288.157 123.557 287.508 126.603 286.246C129.648 284.984 132.416 283.135 134.747 280.804C137.078 278.473 138.927 275.706 140.188 272.66C141.45 269.614 142.099 266.35 142.099 263.053V99.3508H143.683V68.4768Z" fill="#E6E6E6"/>
<path d="M118.009 6.53104H106.014C106.565 7.88343 106.776 9.35073 106.627 10.8037C106.478 12.2566 105.974 13.6506 105.159 14.8628C104.344 16.0751 103.244 17.0684 101.955 17.7552C100.666 18.442 99.2281 18.8013 97.7675 18.8015H45.1234C43.6629 18.8013 42.2248 18.442 40.9358 17.7552C39.6468 17.0684 38.5465 16.0751 37.7318 14.8628C36.9171 13.6506 36.413 12.2566 36.264 10.8037C36.1149 9.35073 36.3255 7.88343 36.8771 6.53104H25.6738C23.2119 6.53103 20.7741 7.01593 18.4996 7.95805C16.2251 8.90017 14.1585 10.2811 12.4177 12.0219C10.6769 13.7627 9.29598 15.8293 8.35386 18.1038C7.41173 20.3783 6.92682 22.816 6.92682 25.2779V262.879C6.92682 265.341 7.41173 267.779 8.35385 270.053C9.29597 272.328 10.6769 274.394 12.4177 276.135C14.1585 277.876 16.2251 279.257 18.4996 280.199C20.7741 281.141 23.2119 281.626 25.6738 281.626H118.009C120.471 281.626 122.908 281.141 125.183 280.199C127.457 279.257 129.524 277.876 131.265 276.135C133.006 274.394 134.387 272.328 135.329 270.053C136.271 267.779 136.756 265.341 136.756 262.879V25.2779C136.756 22.816 136.271 20.3783 135.329 18.1038C134.387 15.8293 133.006 13.7627 131.265 12.0219C129.524 10.2811 127.457 8.90017 125.183 7.95805C122.908 7.01593 120.471 6.53103 118.009 6.53104Z" fill="white"/>
<path d="M44.6377 54.8327H39.1247C38.9308 54.8327 38.7449 54.9097 38.6078 55.0468C38.4707 55.1839 38.3937 55.3698 38.3937 55.5637V57.9835C38.3937 58.1773 38.4707 58.3633 38.6078 58.5003C38.7449 58.6374 38.9308 58.7144 39.1247 58.7144H40.0382V62.3402H43.7241V58.7144H44.6377C44.8316 58.7144 45.0175 58.6374 45.1545 58.5003C45.2916 58.3633 45.3686 58.1773 45.3686 57.9835V55.5637C45.3686 55.3698 45.2916 55.1839 45.1545 55.0468C45.0175 54.9097 44.8316 54.8327 44.6377 54.8327Z" fill="#E6E6E6"/>
<path d="M50.1596 76.9791C46.7832 72.0385 45.0572 66.1562 45.2287 60.1746C45.2318 60.0366 45.187 59.9018 45.1019 59.793C45.0169 59.6843 44.8968 59.6083 44.7621 59.5781V58.5325H38.9396V59.5635H38.8594C38.7009 59.5637 38.549 59.6269 38.4371 59.7391C38.3252 59.8513 38.2625 60.0033 38.2627 60.1618C38.2627 60.1763 38.2633 60.1908 38.2643 60.2052C38.7231 66.5995 37.1741 72.3337 33.6175 77.4079C33.4129 77.6995 33.3083 78.0496 33.3195 78.4057L33.9562 98.0995C33.9715 98.5388 34.1559 98.9551 34.4708 99.2617C34.7858 99.5683 35.2069 99.7414 35.6465 99.7449H48.8161C49.2606 99.7413 49.6862 99.5643 50.0021 99.2515C50.318 98.9387 50.4993 98.5149 50.5074 98.0705L50.7527 78.9494C50.76 78.2476 50.5531 77.5603 50.1596 76.9791Z" fill="#E6E6E6"/>
<path d="M48.0748 83.5207H36.6117C36.442 83.5207 36.2744 83.5574 36.1202 83.6283C35.966 83.6992 35.829 83.8025 35.7185 83.9313C35.608 84.0601 35.5267 84.2112 35.4801 84.3744C35.4335 84.5376 35.4227 84.7089 35.4485 84.8766L37.1807 96.1362H47.1275L49.2316 84.9145C49.2635 84.7445 49.2575 84.5696 49.2141 84.4023C49.1707 84.2349 49.0909 84.0791 48.9805 83.946C48.8701 83.8129 48.7316 83.7058 48.5751 83.6323C48.4186 83.5588 48.2478 83.5207 48.0748 83.5207Z" fill="white"/>
<path d="M106.008 113.828H100.495C100.302 113.828 100.116 113.905 99.9785 114.042C99.8415 114.179 99.7645 114.365 99.7645 114.559V116.979C99.7645 117.172 99.8415 117.358 99.9785 117.495C100.116 117.633 100.302 117.71 100.495 117.71H101.409V121.335H105.095V117.71H106.008C106.202 117.71 106.388 117.633 106.525 117.495C106.662 117.358 106.739 117.172 106.739 116.979V114.559C106.739 114.365 106.662 114.179 106.525 114.042C106.388 113.905 106.202 113.828 106.008 113.828Z" fill="#E6E6E6"/>
<path d="M111.53 135.974C108.154 131.034 106.428 125.151 106.599 119.17C106.602 119.032 106.558 118.897 106.473 118.788C106.388 118.679 106.268 118.603 106.133 118.573V117.528H100.31V118.559H100.23C100.152 118.559 100.074 118.574 100.002 118.604C99.9291 118.635 99.8633 118.679 99.8079 118.734C99.7525 118.79 99.7085 118.856 99.6786 118.928C99.6487 119.001 99.6333 119.078 99.6334 119.157C99.6335 119.171 99.634 119.186 99.6351 119.2C100.094 125.595 98.5448 131.329 94.9883 136.403C94.7836 136.695 94.679 137.045 94.6903 137.401L95.3269 157.095C95.3422 157.534 95.5266 157.95 95.8415 158.257C96.1565 158.563 96.5777 158.737 97.0172 158.74H110.187C110.631 158.736 111.057 158.559 111.373 158.247C111.689 157.934 111.87 157.51 111.878 157.066L112.123 137.945C112.131 137.243 111.924 136.555 111.53 135.974Z" fill="#E6E6E6"/>
<path d="M109.446 142.516H97.9824C97.8128 142.516 97.6451 142.553 97.4909 142.623C97.3367 142.694 97.1997 142.798 97.0892 142.926C96.9787 143.055 96.8974 143.206 96.8508 143.37C96.8042 143.533 96.7934 143.704 96.8192 143.872L98.5515 155.131H108.498L110.602 143.91C110.634 143.74 110.628 143.565 110.585 143.397C110.541 143.23 110.462 143.074 110.351 142.941C110.241 142.808 110.102 142.701 109.946 142.627C109.789 142.554 109.619 142.516 109.446 142.516H109.446Z" fill="white"/>
<path d="M36.887 197.23H34.2719C34.18 197.23 34.0918 197.266 34.0268 197.331C33.9618 197.396 33.9252 197.484 33.9252 197.576V198.724C33.9252 198.816 33.9618 198.904 34.0268 198.969C34.0918 199.034 34.18 199.071 34.2719 199.071H34.7053V200.791H36.4537V199.071H36.887C36.979 199.071 37.0672 199.034 37.1322 198.969C37.1972 198.904 37.2337 198.816 37.2337 198.724V197.576C37.2337 197.484 37.1972 197.396 37.1322 197.331C37.0672 197.266 36.979 197.23 36.887 197.23Z" fill="#E6E6E6"/>
<path d="M39.5064 207.735C37.9048 205.391 37.0861 202.601 37.1674 199.764C37.1689 199.698 37.1476 199.634 37.1073 199.583C37.067 199.531 37.01 199.495 36.9461 199.481V198.985H34.1842V199.474H34.1462C34.109 199.474 34.0721 199.481 34.0378 199.495C34.0034 199.51 33.9722 199.531 33.9459 199.557C33.9196 199.583 33.8988 199.615 33.8846 199.649C33.8704 199.683 33.8631 199.72 33.8631 199.758C33.8631 199.764 33.8634 199.771 33.8639 199.778C34.1188 202.673 33.3377 205.565 31.6597 207.938C31.5627 208.076 31.5131 208.243 31.5184 208.411L31.8204 217.753C31.8276 217.961 31.9151 218.159 32.0645 218.304C32.2139 218.45 32.4137 218.532 32.6221 218.534H38.8691C39.08 218.532 39.2818 218.448 39.4317 218.3C39.5815 218.151 39.6675 217.95 39.6714 217.739L39.7877 208.669C39.7912 208.336 39.693 208.01 39.5064 207.735Z" fill="#E6E6E6"/>
<path d="M38.6072 211.169H32.6466V214.149H38.6072V211.169Z" fill="white"/>
<path d="M49.0604 197.23H46.4453C46.3533 197.23 46.2651 197.266 46.2001 197.331C46.1351 197.396 46.0986 197.484 46.0986 197.576V198.724C46.0986 198.816 46.1351 198.904 46.2001 198.969C46.2651 199.034 46.3533 199.071 46.4453 199.071H46.8786V200.791H48.627V199.071H49.0604C49.1523 199.071 49.2405 199.034 49.3055 198.969C49.3706 198.904 49.4071 198.816 49.4071 198.724V197.576C49.4071 197.484 49.3706 197.396 49.3055 197.331C49.2405 197.266 49.1523 197.23 49.0604 197.23Z" fill="#E6E6E6"/>
<path d="M51.6797 207.735C50.0781 205.391 49.2594 202.601 49.3407 199.764C49.3422 199.698 49.3209 199.634 49.2806 199.583C49.2402 199.531 49.1833 199.495 49.1194 199.481V198.985H46.3575V199.474H46.3195C46.2822 199.474 46.2454 199.481 46.211 199.495C46.1767 199.51 46.1455 199.531 46.1192 199.557C46.0929 199.583 46.0721 199.615 46.0579 199.649C46.0437 199.683 46.0364 199.72 46.0364 199.758C46.0364 199.764 46.0367 199.771 46.0372 199.778C46.2921 202.673 45.511 205.565 43.833 207.938C43.7359 208.076 43.6863 208.243 43.6917 208.411L43.9937 217.753C44.0009 217.961 44.0884 218.159 44.2378 218.304C44.3871 218.45 44.5869 218.532 44.7954 218.534H51.0424C51.2532 218.532 51.4551 218.448 51.605 218.3C51.7548 218.151 51.8408 217.95 51.8446 217.739L51.961 208.669C51.9645 208.336 51.8663 208.01 51.6797 207.735Z" fill="#E6E6E6"/>
<path d="M50.7805 211.169H44.8199V214.149H50.7805V211.169Z" fill="white"/>
<path d="M61.2337 197.23H58.6186C58.5266 197.23 58.4384 197.266 58.3734 197.331C58.3084 197.396 58.2719 197.484 58.2719 197.576V198.724C58.2719 198.816 58.3084 198.904 58.3734 198.969C58.4384 199.034 58.5266 199.071 58.6186 199.071H59.0519V200.791H60.8003V199.071H61.2337C61.3256 199.071 61.4138 199.034 61.4788 198.969C61.5438 198.904 61.5804 198.816 61.5804 198.724V197.576C61.5804 197.484 61.5438 197.396 61.4788 197.331C61.4138 197.266 61.3256 197.23 61.2337 197.23Z" fill="#E6E6E6"/>
<path d="M63.853 207.735C62.2515 205.391 61.4327 202.601 61.5141 199.764C61.5155 199.698 61.4943 199.634 61.4539 199.583C61.4136 199.531 61.3566 199.495 61.2927 199.481V198.985H58.5309V199.474H58.4928C58.4556 199.474 58.4187 199.481 58.3844 199.495C58.35 199.51 58.3188 199.531 58.2925 199.557C58.2662 199.583 58.2454 199.615 58.2312 199.649C58.217 199.683 58.2097 199.72 58.2098 199.758C58.2098 199.764 58.21 199.771 58.2106 199.778C58.4655 202.673 57.6844 205.565 56.0064 207.938C55.9093 208.076 55.8597 208.243 55.865 208.411L56.167 217.753C56.1743 217.961 56.2617 218.159 56.4111 218.304C56.5605 218.45 56.7603 218.532 56.9688 218.534H63.2157C63.4266 218.532 63.6284 218.448 63.7783 218.3C63.9282 218.151 64.0142 217.95 64.018 217.739L64.1343 208.669C64.1378 208.336 64.0397 208.01 63.853 207.735Z" fill="#E6E6E6"/>
<path d="M62.9538 211.169H56.9932V214.149H62.9538V211.169Z" fill="white"/>
<path d="M96.431 174.407H90.918C90.822 174.407 90.727 174.426 90.6383 174.462C90.5496 174.499 90.469 174.553 90.4012 174.621C90.3333 174.689 90.2794 174.769 90.2427 174.858C90.206 174.947 90.1871 175.042 90.1871 175.138V177.558C90.1871 177.751 90.2641 177.937 90.4012 178.074C90.5382 178.211 90.7242 178.288 90.918 178.288H91.8316V181.914H95.5174V178.288H96.431C96.6249 178.288 96.8108 178.211 96.9479 178.074C97.085 177.937 97.162 177.751 97.162 177.558V175.138C97.162 175.042 97.143 174.947 97.1063 174.858C97.0696 174.769 97.0157 174.689 96.9479 174.621C96.88 174.553 96.7994 174.499 96.7108 174.462C96.6221 174.426 96.527 174.407 96.431 174.407Z" fill="#E6E6E6"/>
<path d="M101.953 196.553C98.5766 191.613 96.8505 185.73 97.022 179.749C97.0251 179.611 96.9803 179.476 96.8953 179.367C96.8102 179.258 96.6901 179.182 96.5554 179.152V178.107H90.7329V179.138H90.6527C90.5742 179.138 90.4966 179.153 90.4241 179.183C90.3517 179.214 90.2859 179.258 90.2305 179.313C90.1751 179.369 90.1312 179.435 90.1012 179.507C90.0713 179.58 90.0559 179.657 90.056 179.736C90.0561 179.75 90.0566 179.765 90.0577 179.779C90.5164 186.174 88.9675 191.908 85.4109 196.982C85.2062 197.274 85.1016 197.624 85.1129 197.98L85.7495 217.674C85.7648 218.113 85.9492 218.529 86.2641 218.836C86.5791 219.142 87.0003 219.315 87.4398 219.319H100.609C101.054 219.315 101.48 219.138 101.795 218.826C102.111 218.513 102.293 218.089 102.301 217.645L102.546 198.524C102.553 197.822 102.346 197.134 101.953 196.553Z" fill="#E6E6E6"/>
<path d="M99.8681 203.095H88.405C88.2353 203.095 88.0676 203.131 87.9134 203.202C87.7593 203.273 87.6222 203.377 87.5118 203.505C87.4013 203.634 87.3199 203.785 87.2733 203.948C87.2267 204.112 87.216 204.283 87.2418 204.451L88.974 215.71H98.9208L101.025 204.489C101.057 204.319 101.051 204.144 101.007 203.976C100.964 203.809 100.884 203.653 100.774 203.52C100.663 203.387 100.525 203.28 100.368 203.206C100.212 203.133 100.041 203.095 99.8681 203.095Z" fill="white"/>
<path d="M99.4408 102.28H66.5777C68.8753 89.8582 68.3467 74.8582 66.5777 58.7267H99.4408C97.7188 74.8583 97.2043 89.8582 99.4408 102.28Z" fill="#E6E6E6"/>
<path d="M83.2073 87.2345C87.5807 87.2345 91.1261 83.6891 91.1261 79.3157C91.1261 74.9422 87.5807 71.3969 83.2073 71.3969C78.8338 71.3969 75.2885 74.9422 75.2885 79.3157C75.2885 83.6891 78.8338 87.2345 83.2073 87.2345Z" fill="white"/>
<path d="M69.3493 160.088H36.4862C38.7838 147.666 38.2552 132.666 36.4862 116.534H69.3493C67.6273 132.666 67.1128 147.666 69.3493 160.088Z" fill="#E6E6E6"/>
<path d="M53.1157 145.042C57.4892 145.042 61.0345 141.496 61.0345 137.123C61.0345 132.75 57.4892 129.204 53.1157 129.204C48.7423 129.204 45.1969 132.75 45.1969 137.123C45.1969 141.496 48.7423 145.042 53.1157 145.042Z" fill="white"/>
<path d="M118.05 105.052H85.187C87.4845 92.6298 86.9559 77.6298 85.187 61.4983H118.05C116.328 77.6298 115.814 92.6298 118.05 105.052Z" fill="#E6E6E6"/>
<path d="M101.816 90.0061C106.19 90.0061 109.735 86.4607 109.735 82.0872C109.735 77.7138 106.19 74.1684 101.816 74.1684C97.443 74.1684 93.8976 77.7138 93.8976 82.0872C93.8976 86.4607 97.443 90.0061 101.816 90.0061Z" fill="white"/>
<path d="M118.05 103.072H85.187C87.4845 90.6501 86.9559 75.6501 85.187 59.5186H118.05C116.328 75.6501 115.814 90.6501 118.05 103.072Z" fill="#E6E6E6"/>
<path d="M101.816 88.0263C106.19 88.0263 109.735 84.481 109.735 80.1075C109.735 75.7341 106.19 72.1887 101.816 72.1887C97.443 72.1887 93.8976 75.7341 93.8976 80.1075C93.8976 84.481 97.443 88.0263 101.816 88.0263Z" fill="white"/>
<path d="M118.05 105.052H85.187C87.4845 92.6298 86.9559 77.6298 85.187 61.4983H118.05C116.328 77.6298 115.814 92.6298 118.05 105.052Z" fill="#E6E6E6"/>
<path d="M101.816 90.0061C106.19 90.0061 109.735 86.4607 109.735 82.0872C109.735 77.7138 106.19 74.1684 101.816 74.1684C97.443 74.1684 93.8976 77.7138 93.8976 82.0872C93.8976 86.4607 97.443 90.0061 101.816 90.0061Z" fill="white"/>
<path d="M125.573 99.9046H17.877V111.783H125.573V99.9046Z" fill="#E6E6E6"/>
<path d="M125.573 158.9H17.877V170.778H125.573V158.9Z" fill="#E6E6E6"/>
<path d="M125.573 217.895H17.877V229.773H125.573V217.895Z" fill="#E6E6E6"/>
<path d="M328.162 264.849L295.303 264.333C297.795 251.949 297.502 236.942 295.986 220.785L328.845 221.3C326.871 237.403 326.121 252.393 328.162 264.849Z" fill="#DE1616"/>
<path d="M312.922 245.88C317.295 245.88 320.841 242.335 320.841 237.961C320.841 233.588 317.295 230.042 312.922 230.042C308.548 230.042 305.003 233.588 305.003 237.961C305.003 242.335 308.548 245.88 312.922 245.88Z" fill="white"/>
<path d="M183.488 179.489H180.543C180.439 179.489 180.34 179.53 180.267 179.603C180.193 179.676 180.152 179.776 180.152 179.879V181.172C180.152 181.223 180.162 181.274 180.182 181.321C180.202 181.369 180.23 181.412 180.267 181.448C180.303 181.484 180.346 181.513 180.393 181.533C180.441 181.552 180.491 181.562 180.543 181.562H181.031V183.499H183V181.562H183.488C183.591 181.562 183.691 181.521 183.764 181.448C183.837 181.375 183.878 181.275 183.878 181.172V179.879C183.878 179.776 183.837 179.676 183.764 179.603C183.691 179.53 183.591 179.489 183.488 179.489Z" fill="#E6E6E6"/>
<path opacity="0.2" d="M182.874 179.91C182.874 180.133 182.785 180.348 182.627 180.506C182.469 180.663 182.255 180.752 182.031 180.752C181.808 180.752 181.594 180.663 181.436 180.506C181.278 180.348 181.189 180.133 181.189 179.91" fill="black"/>
<path d="M280.125 249.277H268.662C268.493 249.277 268.325 249.313 268.171 249.384C268.017 249.455 267.88 249.558 267.769 249.687C267.659 249.816 267.577 249.967 267.531 250.13C267.484 250.294 267.473 250.465 267.499 250.633L269.231 261.892H279.178L281.282 250.67C281.314 250.501 281.308 250.326 281.265 250.158C281.221 249.991 281.142 249.835 281.031 249.702C280.921 249.569 280.782 249.462 280.626 249.388C280.469 249.315 280.298 249.277 280.125 249.277Z" fill="white"/>
<path d="M260.958 266.053H228.095C230.393 253.631 229.864 238.631 228.095 222.5H260.958C259.237 238.631 258.722 253.631 260.958 266.053Z" fill="#D50812"/>
<path d="M244.725 251.007C249.098 251.007 252.644 247.462 252.644 243.089C252.644 238.715 249.098 235.17 244.725 235.17C240.352 235.17 236.806 238.715 236.806 243.089C236.806 247.462 240.352 251.007 244.725 251.007Z" fill="white"/>
<path d="M126.541 128.984L133.918 128.314L138.613 116.912L130.23 112.217L126.541 128.984Z" fill="#FFB8B8"/>
<path d="M194.247 160.285C194.492 159.673 194.588 159.011 194.528 158.355C194.468 157.699 194.252 157.066 193.899 156.509C193.546 155.953 193.066 155.488 192.498 155.153C191.93 154.818 191.291 154.623 190.633 154.584L179.179 153.901L177.492 159.509L189.284 162.748C190.269 163.019 191.32 162.917 192.235 162.463C193.15 162.008 193.866 161.233 194.247 160.285Z" fill="#FFB8B8"/>
<path d="M181.947 162.842L181.821 152.318L156.378 148.258L136.777 125.778C135.757 124.608 134.348 123.848 132.81 123.638C131.273 123.428 129.711 123.782 128.415 124.635C127.63 125.151 126.968 125.834 126.476 126.634C125.984 127.434 125.673 128.333 125.567 129.266C125.46 130.2 125.56 131.145 125.859 132.036C126.158 132.927 126.649 133.741 127.297 134.421L143.468 154.322L181.947 162.842Z" fill="#DE1616"/>
<path d="M120.84 281.229H127.547L144.182 206.017L161.416 229.251L171.476 279.553H177.848L176.506 225.563L154.039 167.884H131.906C125.858 178.83 121.113 190.113 126.541 201.753L120.84 281.229Z" fill="#2F2E41"/>
<path d="M167.365 285.798C167.291 286.035 167.268 286.285 167.298 286.532C167.328 286.779 167.411 287.016 167.54 287.229C167.669 287.441 167.842 287.624 168.047 287.764C168.252 287.905 168.485 288 168.73 288.043L185.141 290.956C185.79 291.074 186.459 290.952 187.024 290.611C187.588 290.27 188.008 289.734 188.205 289.105C188.396 288.504 188.369 287.854 188.129 287.271C187.889 286.687 187.451 286.207 186.892 285.914C183.284 284.061 180.178 281.361 177.841 278.045C176.038 279.725 174.022 279.567 171.881 278.329L169.61 278.613L167.365 285.798Z" fill="#2F2E41"/>
<path d="M117.734 285.798C117.66 286.035 117.637 286.285 117.668 286.532C117.698 286.779 117.78 287.016 117.909 287.229C118.038 287.441 118.211 287.624 118.417 287.764C118.622 287.905 118.854 288 119.099 288.043L135.511 290.956C136.159 291.074 136.829 290.952 137.393 290.611C137.957 290.27 138.378 289.734 138.574 289.105C138.765 288.504 138.739 287.854 138.499 287.271C138.259 286.687 137.821 286.207 137.262 285.914C133.653 284.061 130.547 281.361 128.211 278.045C126.407 279.725 124.391 279.567 122.25 278.329L119.98 278.613L117.734 285.798Z" fill="#2F2E41"/>
<path d="M138.781 121.104C143.966 121.104 148.17 116.9 148.17 111.714C148.17 106.529 143.966 102.325 138.781 102.325C133.595 102.325 129.391 106.529 129.391 111.714C129.391 116.9 133.595 121.104 138.781 121.104Z" fill="#FFB8B8"/>
<path d="M130.397 170.399L154.877 169.728L147.688 147.102C152.155 139.94 147.659 132.785 141.296 125.631L136.265 122.278L128.217 121.607C124.733 125.336 122.826 130.268 122.897 135.371C123.056 146.298 124.991 158.193 130.397 170.399Z" fill="#D50812"/>
<path d="M186.641 185.629C187.107 185.163 187.456 184.593 187.658 183.966C187.861 183.339 187.912 182.672 187.806 182.022C187.701 181.371 187.442 180.755 187.052 180.224C186.662 179.693 186.151 179.262 185.561 178.967L175.299 173.833L171.542 178.326L181.109 185.942C181.909 186.578 182.914 186.898 183.935 186.84C184.955 186.783 185.918 186.352 186.641 185.629Z" fill="#FFB8B8"/>
<path d="M174.327 183.142L178.351 173.417L156.556 159.676L147.379 131.297C146.901 129.82 145.905 128.567 144.574 127.769C143.243 126.971 141.668 126.682 140.141 126.956C139.216 127.122 138.339 127.489 137.572 128.031C136.804 128.574 136.166 129.278 135.7 130.094C135.235 130.91 134.955 131.819 134.879 132.755C134.804 133.692 134.935 134.634 135.263 135.514L142.302 160.171L174.327 183.142Z" fill="#DE1616"/>
<path d="M123.355 108.026C123.355 111.679 125.728 117.337 128.72 119.763C130.734 121.394 133.395 121.326 134.421 119.092C135.474 116.8 139.102 111.414 145.487 108.026C154 103.509 142.469 95.781 134.421 96.9593C128.374 97.8448 123.355 101.914 123.355 108.026Z" fill="#2F2E41"/>
<path d="M129.056 102.995C132.76 102.995 135.762 99.9927 135.762 96.2887C135.762 92.5846 132.76 89.5818 129.056 89.5818C125.352 89.5818 122.349 92.5846 122.349 96.2887C122.349 99.9927 125.352 102.995 129.056 102.995Z" fill="#2F2E41"/>
<path d="M136.769 93.9413C136.768 92.2504 136.128 90.6223 134.978 89.3832C133.827 88.1442 132.251 87.3857 130.565 87.2599C130.731 87.2475 130.898 87.2345 131.068 87.2345C132.846 87.2345 134.552 87.9411 135.81 89.1988C137.068 90.4566 137.775 92.1625 137.775 93.9413C137.775 95.72 137.068 97.4259 135.81 98.6837C134.552 99.9415 132.846 100.648 131.068 100.648C130.898 100.648 130.731 100.635 130.565 100.623C132.251 100.497 133.827 99.7384 134.978 98.4993C136.128 97.2602 136.768 95.6321 136.769 93.9413Z" fill="#2F2E41"/>
<path d="M138.948 115.068C139.782 115.068 140.457 114.167 140.457 113.056C140.457 111.945 139.782 111.044 138.948 111.044C138.115 111.044 137.439 111.945 137.439 113.056C137.439 114.167 138.115 115.068 138.948 115.068Z" fill="#FFB8B8"/>
<path d="M328.974 268.93H224.569L202.461 164.416H183.592V159.726H206.262L228.371 264.24H328.974V268.93Z" fill="#3F3D56"/>
<path d="M239.869 288.023C245.419 288.023 249.919 283.524 249.919 277.974C249.919 272.424 245.419 267.925 239.869 267.925C234.319 267.925 229.82 272.424 229.82 277.974C229.82 283.524 234.319 288.023 239.869 288.023Z" fill="#3F3D56"/>
<path d="M314.905 288.023C320.455 288.023 324.954 283.524 324.954 277.974C324.954 272.424 320.455 267.925 314.905 267.925C309.355 267.925 304.855 272.424 304.855 277.974C304.855 283.524 309.355 288.023 314.905 288.023Z" fill="#3F3D56"/>
<path d="M327.07 266.721H225.491L207.568 178.15H343.89C344.585 178.15 345.273 178.301 345.904 178.592C346.536 178.883 347.098 179.307 347.55 179.836C348.002 180.365 348.334 180.985 348.523 181.654C348.713 182.323 348.755 183.026 348.647 183.713L331.827 262.653C331.654 263.789 331.078 264.824 330.205 265.571C329.332 266.318 328.219 266.726 327.07 266.721ZM226.594 265.381H327.07C327.9 265.385 328.702 265.09 329.332 264.551C329.963 264.012 330.378 263.265 330.503 262.445L347.323 183.505C347.401 183.009 347.371 182.502 347.234 182.019C347.097 181.536 346.858 181.088 346.531 180.707C346.205 180.325 345.8 180.019 345.344 179.809C344.888 179.598 344.392 179.49 343.89 179.49H209.194L226.594 265.381Z" fill="#3F3D56"/>
<path d="M245.238 266.438L233.501 178.929L234.822 178.711L246.56 266.219L245.238 266.438Z" fill="#3F3D56"/>
<path d="M310.502 265.766L309.179 265.551L320.574 178.713L321.897 178.927L310.502 265.766Z" fill="#3F3D56"/>
<path d="M279.407 178.82H278.068V266.328H279.407V178.82Z" fill="#3F3D56"/>
<path d="M214.412 202.268L214.409 203.608L344.112 203.922L344.115 202.583L214.412 202.268Z" fill="#3F3D56"/>
<path d="M334.962 243.66L221.016 244.439L221.025 245.779L334.971 245L334.962 243.66Z" fill="#3F3D56"/>
<path d="M185.602 165.421C189.673 165.421 192.972 163.621 192.972 161.401C192.972 159.181 189.673 157.381 185.602 157.381C181.532 157.381 178.233 159.181 178.233 161.401C178.233 163.621 181.532 165.421 185.602 165.421Z" fill="#3F3D56"/>
</g>
<defs>
<clipPath id="clip0">
<rect width="348.706" height="291" fill="white"/>
</clipPath>
</defs>
</svg>
