<svg width="335" height="280" viewBox="0 0 335 280" fill="none" xmlns="http://www.w3.org/2000/svg">
<g clip-path="url(#clip0)">
<path d="M138.035 66.2232H136.514V24.5545C136.514 21.3875 135.89 18.2514 134.678 15.3254C133.466 12.3995 131.69 9.74085 129.45 7.5014C127.211 5.26196 124.552 3.48553 121.626 2.27356C118.7 1.06159 115.564 0.437795 112.397 0.437805H24.1167C20.9497 0.437795 17.8136 1.06159 14.8877 2.27356C11.9617 3.48553 9.30307 5.26196 7.06362 7.50141C4.82418 9.74085 3.04774 12.3995 1.83577 15.3254C0.623787 18.2514 -4.95415e-06 21.3875 0 24.5545V253.152C-2.97248e-06 256.319 0.623792 259.455 1.83577 262.381C3.04775 265.307 4.82418 267.966 7.06363 270.205C9.30308 272.444 11.9617 274.221 14.8877 275.433C17.8136 276.645 20.9497 277.269 24.1167 277.269H112.397C115.564 277.269 118.7 276.645 121.626 275.433C124.552 274.221 127.211 272.444 129.45 270.205C131.69 267.966 133.466 265.307 134.678 262.381C135.89 259.455 136.514 256.319 136.514 253.152V95.8836H138.035V66.2232Z" fill="#E6E6E6"/>
<path d="M113.37 6.71216H101.847C102.377 8.0114 102.579 9.42102 102.436 10.8169C102.293 12.2127 101.809 13.5519 101.026 14.7165C100.243 15.8811 99.1862 16.8353 97.9478 17.4952C96.7095 18.155 95.3279 18.5002 93.9247 18.5003H43.3499C41.9467 18.5002 40.5651 18.155 39.3268 17.4952C38.0885 16.8353 37.0314 15.8811 36.2488 14.7165C35.4661 13.5519 34.9818 12.2127 34.8387 10.8169C34.6955 9.42102 34.8978 8.0114 35.4277 6.71216H24.6647C22.2996 6.71215 19.9576 7.17799 17.7725 8.08308C15.5875 8.98817 13.602 10.3148 11.9296 11.9872C10.2573 13.6596 8.93064 15.645 8.02555 17.83C7.12046 20.0151 6.65461 22.3571 6.6546 24.7222V252.984C6.6546 255.349 7.12045 257.691 8.02554 259.876C8.93064 262.061 10.2572 264.047 11.9296 265.719C13.602 267.392 15.5874 268.718 17.7725 269.623C19.9576 270.528 22.2996 270.994 24.6647 270.994H113.37C115.736 270.994 118.078 270.528 120.263 269.623C122.448 268.718 124.433 267.392 126.106 265.719C127.778 264.047 129.105 262.061 130.01 259.876C130.915 257.691 131.381 255.349 131.381 252.984V24.7222C131.381 22.3571 130.915 20.0151 130.01 17.83C129.105 15.645 127.778 13.6596 126.106 11.9872C124.433 10.3148 122.448 8.98817 120.263 8.08308C118.078 7.17799 115.736 6.71215 113.37 6.71216V6.71216Z" fill="white"/>
<path d="M42.8832 53.1154H37.5868C37.4006 53.1154 37.222 53.1893 37.0903 53.321C36.9586 53.4527 36.8846 53.6313 36.8846 53.8175V56.1423C36.8846 56.3285 36.9586 56.5071 37.0903 56.6388C37.222 56.7705 37.4006 56.8445 37.5868 56.8445H38.4645V60.3277H42.0055V56.8445H42.8832C43.0694 56.8445 43.248 56.7705 43.3797 56.6388C43.5114 56.5071 43.5854 56.3285 43.5854 56.1423V53.8175C43.5854 53.6313 43.5114 53.4527 43.3797 53.321C43.248 53.1893 43.0694 53.1154 42.8832 53.1154V53.1154Z" fill="#E6E6E6"/>
<path d="M48.188 74.3912C44.9444 69.6449 43.2862 63.9937 43.4509 58.2473C43.4539 58.1147 43.4109 57.9851 43.3291 57.8807C43.2474 57.7762 43.1321 57.7033 43.0027 57.6742V56.6697H37.409V57.6602H37.332C37.1797 57.6604 37.0338 57.7211 36.9263 57.8289C36.8188 57.9366 36.7586 58.0827 36.7587 58.2349C36.7588 58.2489 36.7593 58.2628 36.7603 58.2767C37.201 64.4196 35.7129 69.9284 32.2962 74.8032C32.0995 75.0834 31.9991 75.4197 32.0099 75.7618L32.6215 94.6815C32.6362 95.1035 32.8133 95.5035 33.1159 95.7981C33.4185 96.0926 33.8231 96.2589 34.2453 96.2623H46.8973C47.3244 96.2588 47.7332 96.0887 48.0367 95.7882C48.3402 95.4877 48.5144 95.0806 48.5221 94.6536L48.7578 76.2841C48.7648 75.6099 48.566 74.9496 48.188 74.3912Z" fill="#E6E6E6"/>
<path d="M46.1852 80.6758H35.1726C35.0096 80.6757 34.8485 80.711 34.7004 80.7791C34.5523 80.8472 34.4207 80.9465 34.3145 81.0702C34.2084 81.1939 34.1302 81.3391 34.0855 81.4959C34.0407 81.6526 34.0304 81.8172 34.0551 81.9783L35.7193 92.7954H45.2751L47.2965 82.0148C47.3271 81.8515 47.3214 81.6835 47.2797 81.5226C47.238 81.3618 47.1614 81.2122 47.0553 81.0843C46.9492 80.9565 46.8162 80.8536 46.6658 80.783C46.5154 80.7124 46.3513 80.6757 46.1852 80.6758V80.6758Z" fill="white"/>
<path d="M101.842 109.792H96.5454C96.3592 109.792 96.1806 109.866 96.0489 109.997C95.9172 110.129 95.8432 110.308 95.8432 110.494V112.819C95.8432 113.005 95.9172 113.183 96.0489 113.315C96.1806 113.447 96.3592 113.521 96.5454 113.521H97.4231V117.004H100.964V113.521H101.842C102.028 113.521 102.207 113.447 102.338 113.315C102.47 113.183 102.544 113.005 102.544 112.819V110.494C102.544 110.308 102.47 110.129 102.338 109.997C102.207 109.866 102.028 109.792 101.842 109.792Z" fill="#E6E6E6"/>
<path d="M107.147 131.068C103.903 126.321 102.245 120.67 102.41 114.924C102.412 114.791 102.369 114.661 102.288 114.557C102.206 114.453 102.091 114.38 101.961 114.351V113.346H96.3676V114.337H96.2905C96.2151 114.337 96.1405 114.352 96.0709 114.381C96.0013 114.409 95.9381 114.452 95.8849 114.505C95.8317 114.559 95.7895 114.622 95.7607 114.692C95.732 114.761 95.7172 114.836 95.7173 114.911C95.7173 114.925 95.7179 114.939 95.7189 114.953C96.1596 121.096 94.6715 126.605 91.2547 131.48C91.0581 131.76 90.9576 132.096 90.9684 132.438L91.5801 151.358C91.5948 151.78 91.7719 152.18 92.0745 152.474C92.377 152.769 92.7817 152.935 93.2039 152.939H105.856C106.283 152.935 106.692 152.765 106.995 152.465C107.299 152.164 107.473 151.757 107.481 151.33L107.716 132.96C107.723 132.286 107.525 131.626 107.147 131.068V131.068Z" fill="#E6E6E6"/>
<path d="M105.144 137.352H94.1313C93.9682 137.352 93.8071 137.387 93.659 137.455C93.5109 137.524 93.3793 137.623 93.2731 137.747C93.167 137.87 93.0889 138.015 93.0441 138.172C92.9993 138.329 92.989 138.494 93.0138 138.655L94.6779 149.472H104.234L106.255 138.691C106.286 138.528 106.28 138.36 106.238 138.199C106.197 138.038 106.12 137.889 106.014 137.761C105.908 137.633 105.775 137.53 105.624 137.459C105.474 137.389 105.31 137.352 105.144 137.352H105.144Z" fill="white"/>
<path d="M35.4372 189.915H32.9249C32.8365 189.915 32.7518 189.95 32.6894 190.013C32.6269 190.075 32.5918 190.16 32.5918 190.248V191.351C32.5918 191.439 32.6269 191.524 32.6894 191.587C32.7518 191.649 32.8365 191.684 32.9249 191.684H33.3412V193.337H35.0209V191.684H35.4372C35.5255 191.684 35.6102 191.649 35.6727 191.587C35.7352 191.524 35.7703 191.439 35.7703 191.351V190.248C35.7703 190.16 35.7352 190.075 35.6727 190.013C35.6102 189.95 35.5255 189.915 35.4372 189.915Z" fill="#E6E6E6"/>
<path d="M37.9536 200.007C36.415 197.756 35.6284 195.075 35.7066 192.35C35.708 192.287 35.6875 192.225 35.6488 192.176C35.61 192.126 35.5553 192.092 35.4939 192.078V191.601H32.8406V192.071H32.804C32.7683 192.071 32.7329 192.078 32.6999 192.092C32.6669 192.106 32.6369 192.126 32.6116 192.151C32.5864 192.176 32.5664 192.207 32.5527 192.24C32.5391 192.273 32.5321 192.308 32.5321 192.344C32.5321 192.35 32.5324 192.357 32.5329 192.364C32.7778 195.145 32.0274 197.923 30.4153 200.203C30.3221 200.336 30.2744 200.495 30.2795 200.658L30.5697 209.632C30.5766 209.832 30.6606 210.022 30.8042 210.162C30.9477 210.301 31.1396 210.38 31.3399 210.382H37.3413C37.5439 210.38 37.7378 210.3 37.8818 210.157C38.0258 210.015 38.1084 209.821 38.1121 209.619L38.2239 200.905C38.2272 200.586 38.1329 200.272 37.9536 200.007V200.007Z" fill="#E6E6E6"/>
<path d="M37.0897 203.306H31.3634V206.17H37.0897V203.306Z" fill="white"/>
<path d="M47.132 189.915H44.6197C44.5314 189.915 44.4466 189.95 44.3842 190.013C44.3217 190.075 44.2866 190.16 44.2866 190.248V191.351C44.2866 191.439 44.3217 191.524 44.3842 191.587C44.4466 191.649 44.5314 191.684 44.6197 191.684H45.036V193.337H46.7157V191.684H47.132C47.2203 191.684 47.3051 191.649 47.3675 191.587C47.43 191.524 47.4651 191.439 47.4651 191.351V190.248C47.4651 190.16 47.43 190.075 47.3675 190.013C47.3051 189.95 47.2203 189.915 47.132 189.915Z" fill="#E6E6E6"/>
<path d="M49.6484 200.007C48.1098 197.756 47.3232 195.075 47.4014 192.35C47.4028 192.287 47.3824 192.225 47.3436 192.176C47.3048 192.126 47.2501 192.092 47.1888 192.078V191.601H44.5354V192.071H44.4989C44.4631 192.071 44.4277 192.078 44.3947 192.092C44.3617 192.106 44.3317 192.126 44.3065 192.151C44.2812 192.176 44.2612 192.207 44.2476 192.24C44.2339 192.273 44.2269 192.308 44.227 192.344C44.227 192.35 44.2272 192.357 44.2277 192.364C44.4726 195.145 43.7222 197.923 42.1102 200.203C42.0169 200.336 41.9693 200.495 41.9744 200.658L42.2645 209.632C42.2715 209.832 42.3555 210.022 42.499 210.162C42.6425 210.301 42.8344 210.38 43.0347 210.382H49.0362C49.2387 210.38 49.4327 210.3 49.5766 210.157C49.7206 210.015 49.8032 209.821 49.8069 209.619L49.9187 200.905C49.922 200.586 49.8277 200.272 49.6484 200.007Z" fill="#E6E6E6"/>
<path d="M48.7846 203.306H43.0583V206.17H48.7846V203.306Z" fill="white"/>
<path d="M58.8268 189.915H56.3145C56.2262 189.915 56.1415 189.95 56.079 190.013C56.0165 190.075 55.9814 190.16 55.9814 190.248V191.351C55.9814 191.439 56.0165 191.524 56.079 191.587C56.1415 191.649 56.2262 191.684 56.3145 191.684H56.7308V193.337H58.4105V191.684H58.8268C58.9152 191.684 58.9999 191.649 59.0624 191.587C59.1248 191.524 59.1599 191.439 59.1599 191.351V190.248C59.1599 190.16 59.1248 190.075 59.0624 190.013C58.9999 189.95 58.9152 189.915 58.8268 189.915Z" fill="#E6E6E6"/>
<path d="M61.3432 200.007C59.8046 197.756 59.0181 195.075 59.0962 192.35C59.0976 192.287 59.0772 192.225 59.0384 192.176C58.9997 192.126 58.945 192.092 58.8836 192.078V191.601H56.2303V192.071H56.1937C56.1579 192.071 56.1226 192.078 56.0895 192.092C56.0565 192.106 56.0265 192.126 56.0013 192.151C55.976 192.176 55.956 192.207 55.9424 192.24C55.9287 192.273 55.9217 192.308 55.9218 192.344C55.9218 192.35 55.9221 192.357 55.9226 192.364C56.1675 195.145 55.417 197.923 53.805 200.203C53.7117 200.336 53.6641 200.495 53.6692 200.658L53.9593 209.632C53.9663 209.832 54.0503 210.022 54.1938 210.162C54.3373 210.301 54.5293 210.38 54.7296 210.382H60.731C60.9336 210.38 61.1275 210.3 61.2714 210.157C61.4154 210.015 61.498 209.821 61.5017 209.619L61.6135 200.905C61.6168 200.586 61.5225 200.272 61.3432 200.007Z" fill="#E6E6E6"/>
<path d="M60.4794 203.306H54.7531V206.17H60.4794V203.306Z" fill="white"/>
<path d="M92.6408 167.99H87.3445C87.2523 167.99 87.1609 168.008 87.0758 168.043C86.9906 168.078 86.9132 168.13 86.8479 168.195C86.7827 168.26 86.731 168.338 86.6957 168.423C86.6604 168.508 86.6423 168.599 86.6423 168.692V171.016C86.6423 171.203 86.7163 171.381 86.8479 171.513C86.9796 171.645 87.1582 171.719 87.3445 171.719H88.2222V175.202H91.7631V171.719H92.6408C92.8271 171.719 93.0057 171.645 93.1373 171.513C93.269 171.381 93.343 171.203 93.343 171.016V168.692C93.343 168.599 93.3248 168.508 93.2896 168.423C93.2543 168.338 93.2025 168.26 93.1373 168.195C93.0721 168.13 92.9947 168.078 92.9095 168.043C92.8243 168.008 92.733 167.99 92.6408 167.99V167.99Z" fill="#E6E6E6"/>
<path d="M97.9457 189.265C94.702 184.519 93.0438 178.868 93.2086 173.121C93.2115 172.989 93.1685 172.859 93.0868 172.755C93.0051 172.65 92.8897 172.577 92.7603 172.548V171.544H87.1667V172.534H87.0896C87.0142 172.534 86.9396 172.549 86.87 172.578C86.8004 172.607 86.7372 172.65 86.684 172.703C86.6307 172.756 86.5885 172.82 86.5598 172.889C86.531 172.959 86.5163 173.034 86.5164 173.109C86.5164 173.123 86.5169 173.137 86.518 173.151C86.9586 179.294 85.4706 184.803 82.0538 189.677C81.8572 189.958 81.7567 190.294 81.7675 190.636L82.3792 209.556C82.3939 209.978 82.571 210.378 82.8735 210.672C83.1761 210.967 83.5807 211.133 84.003 211.136H96.655C97.082 211.133 97.4908 210.963 97.7943 210.662C98.0978 210.362 98.272 209.955 98.2798 209.528L98.5155 191.158C98.5224 190.484 98.3237 189.824 97.9457 189.265Z" fill="#E6E6E6"/>
<path d="M95.9428 195.55H84.9302C84.7672 195.55 84.6061 195.585 84.458 195.653C84.3099 195.721 84.1782 195.821 84.0721 195.944C83.9659 196.068 83.8878 196.213 83.843 196.37C83.7983 196.527 83.7879 196.691 83.8127 196.852L85.4769 207.67H95.0327L97.054 196.889C97.0846 196.726 97.0789 196.558 97.0372 196.397C96.9955 196.236 96.9189 196.086 96.8128 195.959C96.7067 195.831 96.5737 195.728 96.4234 195.657C96.273 195.587 96.1089 195.55 95.9428 195.55V195.55Z" fill="white"/>
<path d="M95.5323 98.6979H63.9609C66.1682 86.7642 65.6603 72.3537 63.9609 56.8563H95.5323C93.878 72.3538 93.3837 86.7642 95.5323 98.6979Z" fill="#E6E6E6"/>
<path d="M79.9367 84.2435C84.1383 84.2435 87.5443 80.8375 87.5443 76.636C87.5443 72.4344 84.1383 69.0284 79.9367 69.0284C75.7352 69.0284 72.3292 72.4344 72.3292 76.636C72.3292 80.8375 75.7352 84.2435 79.9367 84.2435Z" fill="white"/>
<path d="M66.6235 154.233H35.0521C37.2594 142.299 36.7516 127.889 35.0521 112.391H66.6235C64.9692 127.889 64.4749 142.299 66.6235 154.233Z" fill="#E6E6E6"/>
<path d="M51.028 139.779C55.2295 139.779 58.6355 136.373 58.6355 132.171C58.6355 127.97 55.2295 124.564 51.028 124.564C46.8264 124.564 43.4204 127.97 43.4204 132.171C43.4204 136.373 46.8264 139.779 51.028 139.779Z" fill="white"/>
<path d="M113.41 101.361H81.8387C84.046 89.4268 83.5381 75.0164 81.8387 59.519H113.41C111.756 75.0164 111.261 89.4268 113.41 101.361Z" fill="#E6E6E6"/>
<path d="M97.8145 86.9062C102.016 86.9062 105.422 83.5001 105.422 79.2986C105.422 75.0971 102.016 71.691 97.8145 71.691C93.6129 71.691 90.2069 75.0971 90.2069 79.2986C90.2069 83.5001 93.6129 86.9062 97.8145 86.9062Z" fill="white"/>
<path d="M113.41 99.4587H81.8387C84.046 87.5249 83.5381 73.1145 81.8387 57.6171H113.41C111.756 73.1145 111.261 87.5249 113.41 99.4587Z" fill="#E6E6E6"/>
<path d="M97.8145 85.0043C102.016 85.0043 105.422 81.5982 105.422 77.3967C105.422 73.1952 102.016 69.7892 97.8145 69.7892C93.6129 69.7892 90.2069 73.1952 90.2069 77.3967C90.2069 81.5982 93.6129 85.0043 97.8145 85.0043Z" fill="white"/>
<path d="M113.41 101.361H81.8387C84.046 89.4268 83.5381 75.0164 81.8387 59.519H113.41C111.756 75.0164 111.261 89.4268 113.41 101.361Z" fill="#E6E6E6"/>
<path d="M97.8145 86.9062C102.016 86.9062 105.422 83.5001 105.422 79.2986C105.422 75.0971 102.016 71.691 97.8145 71.691C93.6129 71.691 90.2069 75.0971 90.2069 79.2986C90.2069 83.5001 93.6129 86.9062 97.8145 86.9062Z" fill="white"/>
<path d="M120.637 96.4156H17.1744V107.827H120.637V96.4156Z" fill="#E6E6E6"/>
<path d="M120.637 153.092H17.1744V164.503H120.637V153.092Z" fill="#E6E6E6"/>
<path d="M120.637 209.768H17.1744V221.18H120.637V209.768Z" fill="#E6E6E6"/>
<path d="M315.264 254.876L283.696 254.381C286.091 242.484 285.809 228.067 284.353 212.545L315.92 213.04C314.023 228.51 313.303 242.91 315.264 254.876Z" fill="#DE1616"/>
<path d="M300.622 236.654C304.824 236.654 308.23 233.248 308.23 229.046C308.23 224.844 304.824 221.438 300.622 221.438C296.421 221.438 293.015 224.844 293.015 229.046C293.015 233.248 296.421 236.654 300.622 236.654Z" fill="white"/>
<path d="M176.276 172.872H173.446C173.347 172.872 173.251 172.911 173.181 172.981C173.111 173.052 173.071 173.147 173.071 173.247V174.489C173.071 174.538 173.081 174.587 173.1 174.632C173.119 174.678 173.146 174.719 173.181 174.754C173.216 174.789 173.257 174.816 173.303 174.835C173.348 174.854 173.397 174.864 173.446 174.864H173.915V176.725H175.807V174.864H176.276C176.375 174.864 176.471 174.824 176.541 174.754C176.611 174.684 176.651 174.588 176.651 174.489V173.247C176.651 173.147 176.611 173.052 176.541 172.981C176.471 172.911 176.375 172.872 176.276 172.872V172.872Z" fill="#E6E6E6"/>
<path opacity="0.2" d="M175.686 173.276C175.686 173.491 175.601 173.697 175.449 173.849C175.297 174 175.091 174.086 174.877 174.086C174.662 174.086 174.456 174 174.304 173.849C174.153 173.697 174.067 173.491 174.067 173.276" fill="black"/>
<path d="M269.115 239.917H258.102C257.939 239.917 257.778 239.952 257.63 240.02C257.482 240.088 257.35 240.187 257.244 240.311C257.138 240.435 257.06 240.58 257.015 240.737C256.97 240.893 256.96 241.058 256.985 241.219L258.649 252.036H268.205L270.226 241.256C270.257 241.092 270.251 240.924 270.209 240.764C270.168 240.603 270.091 240.453 269.985 240.325C269.879 240.197 269.746 240.094 269.596 240.024C269.445 239.953 269.281 239.917 269.115 239.917V239.917Z" fill="white"/>
<path d="M250.701 256.034H219.13C221.337 244.1 220.829 229.69 219.13 214.192H250.701C249.047 229.69 248.553 244.1 250.701 256.034Z" fill="#D50812"/>
<path d="M235.106 241.579C239.308 241.579 242.714 238.173 242.714 233.972C242.714 229.77 239.308 226.364 235.106 226.364C230.904 226.364 227.498 229.77 227.498 233.972C227.498 238.173 230.904 241.579 235.106 241.579Z" fill="white"/>
<path d="M121.567 124.352L128.654 123.708L133.165 112.755L125.111 108.244L121.567 124.352Z" fill="#FFB8B8"/>
<path d="M186.612 154.422C186.847 153.835 186.94 153.199 186.882 152.569C186.824 151.938 186.617 151.33 186.278 150.796C185.939 150.261 185.478 149.814 184.932 149.493C184.387 149.171 183.772 148.984 183.14 148.946L172.136 148.29L170.516 153.678L181.844 156.789C182.791 157.049 183.8 156.951 184.679 156.515C185.559 156.078 186.246 155.334 186.612 154.422V154.422Z" fill="#FFB8B8"/>
<path d="M174.796 156.879L174.674 146.769L150.231 142.869L131.401 121.272C130.421 120.148 129.067 119.418 127.59 119.216C126.113 119.014 124.613 119.354 123.367 120.174C122.613 120.67 121.977 121.325 121.504 122.094C121.032 122.863 120.734 123.727 120.631 124.623C120.529 125.52 120.624 126.429 120.912 127.284C121.199 128.14 121.671 128.922 122.293 129.576L137.829 148.694L174.796 156.879Z" fill="#DE1616"/>
<path d="M116.09 270.613H122.533L138.515 198.357L155.072 220.678L164.736 269.003H170.857L169.569 217.135L147.984 161.723H126.721C120.911 172.239 116.353 183.079 121.567 194.261L116.09 270.613Z" fill="#2F2E41"/>
<path d="M160.787 275.002C160.715 275.23 160.694 275.471 160.723 275.708C160.751 275.945 160.831 276.173 160.955 276.377C161.079 276.581 161.245 276.757 161.442 276.891C161.639 277.026 161.863 277.118 162.098 277.159L177.864 279.957C178.487 280.071 179.131 279.953 179.673 279.626C180.215 279.298 180.618 278.784 180.807 278.179V278.179C180.991 277.602 180.965 276.978 180.735 276.417C180.504 275.857 180.083 275.395 179.546 275.114C176.08 273.334 173.096 270.74 170.851 267.554C169.119 269.168 167.182 269.016 165.125 267.827L162.944 268.1L160.787 275.002Z" fill="#2F2E41"/>
<path d="M113.107 275.002C113.036 275.23 113.014 275.471 113.043 275.708C113.072 275.945 113.151 276.173 113.275 276.377C113.399 276.581 113.565 276.757 113.762 276.891C113.959 277.026 114.183 277.118 114.418 277.159L130.185 279.957C130.808 280.071 131.451 279.953 131.993 279.626C132.535 279.298 132.939 278.784 133.127 278.179V278.179C133.311 277.602 133.286 276.978 133.055 276.417C132.824 275.857 132.404 275.395 131.867 275.114C128.4 273.334 125.416 270.74 123.172 267.554C121.439 269.168 119.502 269.016 117.445 267.827L115.264 268.1L113.107 275.002Z" fill="#2F2E41"/>
<path d="M133.326 116.782C138.308 116.782 142.346 112.743 142.346 107.761C142.346 102.779 138.308 98.7407 133.326 98.7407C128.344 98.7407 124.305 102.779 124.305 107.761C124.305 112.743 128.344 116.782 133.326 116.782Z" fill="#FFB8B8"/>
<path d="M125.272 164.139L148.789 163.495L141.883 141.758C146.175 134.877 141.855 128.003 135.742 121.131L130.91 117.909L123.178 117.265C119.83 120.847 117.998 125.585 118.066 130.488C118.219 140.985 120.078 152.413 125.272 164.139Z" fill="#D50812"/>
<path d="M179.305 178.771C179.753 178.323 180.088 177.776 180.282 177.173C180.477 176.57 180.526 175.93 180.424 175.305C180.323 174.68 180.075 174.088 179.7 173.578C179.325 173.068 178.834 172.654 178.268 172.37L168.409 167.438L164.799 171.754L173.991 179.071C174.759 179.682 175.725 179.99 176.705 179.934C177.685 179.879 178.61 179.465 179.305 178.771V178.771Z" fill="#FFB8B8"/>
<path d="M167.475 176.381L171.341 167.039L150.403 153.837L141.586 126.574C141.127 125.156 140.17 123.951 138.892 123.185C137.613 122.418 136.1 122.141 134.633 122.404C133.744 122.563 132.902 122.916 132.164 123.437C131.427 123.958 130.814 124.634 130.367 125.418C129.92 126.203 129.65 127.075 129.578 127.975C129.505 128.875 129.631 129.78 129.947 130.625L136.708 154.313L167.475 176.381Z" fill="#DE1616"/>
<path d="M118.506 104.217C118.506 107.727 120.786 113.163 123.661 115.493C125.595 117.061 128.152 116.995 129.138 114.849C130.149 112.647 133.634 107.473 139.769 104.217C147.947 99.8781 136.869 92.4542 129.138 93.5862C123.328 94.4368 118.506 98.346 118.506 104.217Z" fill="#2F2E41"/>
<path d="M123.983 99.3851C127.542 99.3851 130.426 96.5003 130.426 92.9419C130.426 89.3834 127.542 86.4987 123.983 86.4987C120.425 86.4987 117.54 89.3834 117.54 92.9419C117.54 96.5003 120.425 99.3851 123.983 99.3851Z" fill="#2F2E41"/>
<path d="M131.393 90.6867C131.392 89.0624 130.778 87.4982 129.672 86.3078C128.567 85.1175 127.053 84.3888 125.433 84.2679C125.593 84.256 125.753 84.2435 125.916 84.2435C127.625 84.2435 129.264 84.9224 130.472 86.1307C131.68 87.339 132.359 88.9779 132.359 90.6867C132.359 92.3956 131.68 94.0344 130.472 95.2428C129.264 96.4511 127.625 97.13 125.916 97.13C125.753 97.13 125.593 97.1175 125.433 97.1055C127.053 96.9847 128.567 96.256 129.672 95.0656C130.778 93.8752 131.392 92.3111 131.393 90.6867Z" fill="#2F2E41"/>
<path d="M133.487 110.983C134.287 110.983 134.937 110.117 134.937 109.05C134.937 107.982 134.287 107.117 133.487 107.117C132.686 107.117 132.037 107.982 132.037 109.05C132.037 110.117 132.686 110.983 133.487 110.983Z" fill="#FFB8B8"/>
<path d="M316.043 258.797H215.743L194.503 158.391H176.376V153.886H198.155L219.394 254.292H316.043V258.797Z" fill="#3F3D56"/>
<path d="M230.441 277.14C235.773 277.14 240.096 272.818 240.096 267.486C240.096 262.154 235.773 257.832 230.441 257.832C225.109 257.832 220.787 262.154 220.787 267.486C220.787 272.818 225.109 277.14 230.441 277.14Z" fill="#3F3D56"/>
<path d="M302.527 277.14C307.859 277.14 312.182 272.818 312.182 267.486C312.182 262.154 307.859 257.832 302.527 257.832C297.195 257.832 292.873 262.154 292.873 267.486C292.873 272.818 297.195 277.14 302.527 277.14Z" fill="#3F3D56"/>
<path d="M314.215 256.675H216.628L199.409 171.586H330.373C331.041 171.586 331.702 171.73 332.309 172.01C332.916 172.29 333.455 172.697 333.889 173.205C334.323 173.713 334.643 174.309 334.825 174.952C335.007 175.595 335.047 176.27 334.944 176.93L318.785 252.767C318.618 253.858 318.065 254.853 317.226 255.571C316.387 256.288 315.318 256.68 314.215 256.675V256.675ZM217.687 255.388H314.215C315.011 255.392 315.783 255.109 316.388 254.591C316.993 254.073 317.393 253.355 317.513 252.567L333.672 176.73C333.747 176.254 333.717 175.767 333.586 175.302C333.455 174.838 333.224 174.408 332.911 174.042C332.597 173.675 332.208 173.381 331.77 173.179C331.332 172.977 330.855 172.873 330.373 172.873H200.972L217.687 255.388Z" fill="#3F3D56"/>
<path d="M235.599 256.403L224.323 172.334L225.593 172.124L236.869 256.193L235.599 256.403Z" fill="#3F3D56"/>
<path d="M298.298 255.758L297.027 255.552L307.974 172.126L309.245 172.332L298.298 255.758Z" fill="#3F3D56"/>
<path d="M268.425 172.229H267.138V256.298H268.425V172.229Z" fill="#3F3D56"/>
<path d="M205.985 194.756L205.982 196.043L330.586 196.345L330.589 195.058L205.985 194.756Z" fill="#3F3D56"/>
<path d="M321.796 234.521L212.329 235.269L212.337 236.556L321.805 235.808L321.796 234.521Z" fill="#3F3D56"/>
<path d="M178.307 159.357C182.217 159.357 185.387 157.628 185.387 155.495C185.387 153.362 182.217 151.633 178.307 151.633C174.397 151.633 171.227 153.362 171.227 155.495C171.227 157.628 174.397 159.357 178.307 159.357Z" fill="#3F3D56"/>
</g>
<defs>
<clipPath id="clip0">
<rect y="0.437836" width="335" height="279.562" fill="white"/>
</clipPath>
</defs>
</svg>
