<svg width="222" height="280" viewBox="0 0 222 280" fill="none" xmlns="http://www.w3.org/2000/svg">
<path d="M222 66.2054H220.469V24.2707C220.469 17.8337 217.912 11.6604 213.361 7.10873C208.809 2.55709 202.636 5.07641e-06 196.199 0H107.354C104.167 -8.04328e-06 101.011 0.627764 98.0662 1.84747C95.1215 3.06718 92.4459 4.85494 90.1922 7.10868C87.9384 9.36242 86.1506 12.038 84.9309 14.9826C83.7112 17.9273 83.0834 21.0834 83.0834 24.2706V254.328C83.0834 257.515 83.7112 260.671 84.9309 263.616C86.1506 266.561 87.9384 269.236 90.1921 271.49C92.4459 273.744 95.1214 275.531 98.0661 276.751C101.011 277.971 104.167 278.599 107.354 278.599H196.199C202.635 278.599 208.809 276.042 213.36 271.49C217.912 266.938 220.469 260.765 220.469 254.328V96.0553H222V66.2054Z" fill="#3F3D56"/>
<path d="M197.178 6.31441H185.581C186.114 7.62194 186.318 9.04057 186.174 10.4453C186.029 11.8501 185.542 13.1978 184.754 14.3698C183.967 15.5419 182.903 16.5022 181.657 17.1663C180.41 17.8303 179.02 18.1777 177.608 18.1778H126.71C125.298 18.1777 123.908 17.8303 122.661 17.1663C121.415 16.5022 120.351 15.5419 119.564 14.3698C118.776 13.1978 118.289 11.8501 118.145 10.4453C118 9.04055 118.204 7.62193 118.737 6.31439H107.906C103.098 6.31439 98.4883 8.22399 95.0892 11.6231C91.6901 15.0222 89.7805 19.6324 89.7805 24.4395V254.159C89.7805 256.539 90.2493 258.896 91.1601 261.095C92.071 263.294 93.4061 265.293 95.0892 266.976C96.7722 268.659 98.7703 269.994 100.969 270.905C103.168 271.815 105.525 272.284 107.906 272.284H197.178C199.558 272.284 201.915 271.815 204.114 270.905C206.313 269.994 208.311 268.659 209.994 266.976C211.677 265.293 213.012 263.294 213.923 261.095C214.834 258.896 215.303 256.539 215.303 254.159V24.4395C215.303 22.0592 214.834 19.7023 213.923 17.5033C213.012 15.3043 211.677 13.3062 209.994 11.6231C208.311 9.94003 206.313 8.60495 204.114 7.69409C201.915 6.78322 199.558 6.31441 197.178 6.31441Z" fill="white"/>
<path d="M204.45 144.72H161.306V245.118H204.45V144.72Z" fill="#E6E6E6"/>
<path d="M204.606 49.0941H161.348V73.5043H204.606V49.0941Z" fill="#E6E6E6"/>
<path d="M204.606 80.302H161.348V106.566H204.606V80.302Z" fill="#E6E6E6"/>
<path d="M204.606 113.364H161.348V137.774H204.606V113.364Z" fill="#E6E6E6"/>
<path d="M152.354 48.9993H100.443V137.679H152.354V48.9993Z" fill="#E6E6E6"/>
<path d="M152.418 144.626H100.508V183.272H152.418V144.626Z" fill="#D50812"/>
<path d="M152.452 190.858H100.541V245.2H152.452V190.858Z" fill="#E6E6E6"/>
<path d="M90.9217 148.258L98.1473 151.927C100.726 153.236 103.215 153.013 104.168 150.282C104.395 149.632 104.479 148.941 104.414 148.255C104.349 147.57 104.136 146.907 103.791 146.312C103.446 145.716 102.976 145.202 102.414 144.805C101.852 144.408 101.211 144.137 100.534 144.011L93.6669 142.729L64.2561 132.971L46.4402 120.338L39.9093 130.743L60.4952 141.851L90.9217 148.258Z" fill="#FFB8B8"/>
<path d="M57.1929 270.046L62.7211 269.125L62.1066 258.682H56.2715L57.1929 270.046Z" fill="#FFB8B8"/>
<path d="M3.5383 259.847L8.88841 261.516L13.0465 251.918L7.83722 249.288L3.5383 259.847Z" fill="#FFB8B8"/>
<path d="M28.9678 113.52C39.4937 109.043 52.604 111.88 65.4075 113.848C65.5267 111.464 66.9709 108.562 65.4581 106.899C63.6202 104.878 63.7894 102.755 64.8953 100.62C67.7234 95.159 63.6715 89.3484 59.5803 84.5171C58.6582 83.4305 57.4928 82.5768 56.1788 82.0253C54.8647 81.4738 53.4392 81.24 52.0178 81.3429L44.4392 81.8842C42.595 82.016 40.8351 82.7078 39.3948 83.8671C37.9545 85.0264 36.9027 86.5979 36.38 88.3713C34.5704 90.8325 33.6018 93.2868 34.2116 95.7283C31.5011 97.5807 31.0457 99.8166 32.2637 102.337C33.2965 103.924 33.2855 105.469 32.2167 106.971C30.813 108.886 29.738 111.022 29.0355 113.29L28.9678 113.52Z" fill="#2F2E41"/>
<path d="M6.51782 250.697L13.2745 253.461L45.5223 211.079L55.6573 260.832L62.414 259.604C66.7483 216.71 70.2826 172.958 65.9459 152.265L40.9155 151.19L29.552 187.43L24.0238 212L6.51782 250.697Z" fill="#2F2E41"/>
<path d="M58.4971 279.322C59.5079 279.538 60.5615 279.427 61.5041 279.002L64.7881 277.525C67.5418 277.383 69.4168 277.932 70.9499 275.931C71.3824 275.359 71.654 274.682 71.7365 273.969C71.819 273.257 71.7094 272.536 71.419 271.88C71.1312 271.222 70.6734 270.653 70.0928 270.23C69.5121 269.808 68.8295 269.548 68.115 269.476L63.6043 266.634L63.3676 268.765C61.306 269.933 58.8585 269.428 56.2649 268.291L54.8492 273.246C54.6667 273.885 54.6174 274.555 54.7043 275.213C54.7912 275.872 55.0126 276.506 55.3546 277.076C55.6966 277.645 56.1521 278.139 56.6926 278.525C57.2332 278.911 57.8474 279.183 58.4971 279.322Z" fill="#D50812"/>
<path d="M2.34932 269.158C3.235 269.691 4.26782 269.927 5.29717 269.832L8.88308 269.501C11.5334 270.261 13.1287 271.389 15.2284 269.994C15.8232 269.594 16.3 269.042 16.6093 268.395C16.9186 267.748 17.0492 267.03 16.9875 266.316C16.9289 265.6 16.6809 264.913 16.2689 264.324C15.8569 263.736 15.2958 263.268 14.6432 262.969L11.3 258.816L10.3841 260.754C8.05504 261.189 5.90393 259.918 3.82015 258L0.872146 262.227C0.492025 262.772 0.227937 263.389 0.0962392 264.04C-0.0354589 264.692 -0.0319588 265.363 0.106543 266.013C0.245045 266.663 0.515588 267.277 0.901387 267.818C1.28719 268.359 1.78002 268.815 2.34932 269.158Z" fill="#D50812"/>
<path d="M50.1291 107.579C56.2354 107.579 61.1855 102.629 61.1855 96.5223C61.1855 90.416 56.2354 85.4659 50.1291 85.4659C44.0228 85.4659 39.0727 90.416 39.0727 96.5223C39.0727 102.629 44.0228 107.579 50.1291 107.579Z" fill="#FFB8B8"/>
<path d="M36.6155 119.863L51.0504 116.792L52.8932 104.815L42.758 102.665L36.6155 119.863Z" fill="#FFB8B8"/>
<path d="M40.6083 152.725H66.4065L60.5915 138.126C61.0141 133.103 58.885 129.408 55.8377 126.191L51.9718 116.485C45.7254 112.374 41.0162 112.681 36.0015 118.021C30.0558 126.439 34.1713 139.093 40.6083 152.725Z" fill="#D50812"/>
<path d="M52.2788 183.745L53.0125 191.815C53.2744 194.696 54.787 196.685 57.6067 196.04C58.2777 195.887 58.9076 195.59 59.4534 195.171C59.9991 194.752 60.4478 194.219 60.7688 193.61C61.0897 193.001 61.2753 192.33 61.3128 191.643C61.3503 190.956 61.2389 190.269 60.9862 189.628L58.4212 183.131L51.0503 153.033L52.2788 131.227H39.994L41.5296 154.568L52.2788 183.745Z" fill="#FFB8B8"/>
<path d="M32.9071 111.185C34.0959 100.414 37.1419 91.2422 42.4274 83.9989L43.2187 83.9723V83.7767L45.7881 83.886L52.9326 83.6459C52.7653 83.8198 52.6057 83.9946 52.4441 84.1692L57.6534 84.3909L62.5674 94.5259C57.8433 93.1584 52.8713 92.8761 48.0228 93.7001C47.4196 93.791 46.8509 94.039 46.3738 94.4192C45.8968 94.7993 45.528 95.2982 45.3046 95.8659C45.2192 96.0438 45.1757 96.2388 45.1772 96.4362C45.1788 96.6335 45.2255 96.8279 45.3137 97.0044C47.3788 100.606 47.2759 104.562 45.1771 108.716C44.7189 109.623 45.5987 110.714 45.8744 111.714L32.9071 111.185Z" fill="#2F2E41"/>
<path d="M39.0727 131.841H53.2003L52.2099 122.625C52.1449 121.031 51.4862 119.519 50.3634 118.386C49.2405 117.253 47.7346 116.58 46.1413 116.501C45.297 116.458 44.4527 116.584 43.6573 116.87C42.8619 117.157 42.1311 117.598 41.5073 118.168C40.8835 118.739 40.379 119.427 40.0231 120.194C39.6672 120.961 39.4669 121.791 39.4338 122.635L39.0727 131.841Z" fill="#DE1616"/>
</svg>
